solid ascii
  facet normal 1.532554e-001 -2.306679e-001 -9.608876e-001
    outer loop
      vertex   3.124729e-001 -4.116679e-001 -2.000000e-001
      vertex   4.315053e-001 -5.917047e-001 -1.377960e-001
      vertex   2.584133e-001 -4.475850e-001 -2.000000e-001
    endloop
  endfacet
  facet normal 1.756516e-001 -2.157347e-001 -9.605233e-001
    outer loop
      vertex   3.124729e-001 -4.116679e-001 -2.000000e-001
      vertex   4.919551e-001 -5.424864e-001 -1.377960e-001
      vertex   4.315053e-001 -5.917047e-001 -1.377960e-001
    endloop
  endfacet
  facet normal 1.805878e-001 -2.092130e-001 -9.610505e-001
    outer loop
      vertex   3.124729e-001 -4.116679e-001 -2.000000e-001
      vertex   3.616047e-001 -3.692585e-001 -2.000000e-001
      vertex   4.919551e-001 -5.424864e-001 -1.377960e-001
    endloop
  endfacet
  facet normal 1.977938e-001 -1.960462e-001 -9.604392e-001
    outer loop
      vertex   4.919551e-001 -5.424864e-001 -1.377960e-001
      vertex   3.616047e-001 -3.692585e-001 -2.000000e-001
      vertex   5.468309e-001 -4.871215e-001 -1.377960e-001
    endloop
  endfacet
  facet normal 2.052017e-001 -1.847645e-001 -9.611214e-001
    outer loop
      vertex   5.468309e-001 -4.871215e-001 -1.377960e-001
      vertex   3.616047e-001 -3.692585e-001 -2.000000e-001
      vertex   4.050337e-001 -3.210257e-001 -2.000000e-001
    endloop
  endfacet
  facet normal 2.267987e-001 -1.576292e-001 -9.611011e-001
    outer loop
      vertex   5.955108e-001 -4.262373e-001 -1.377960e-001
      vertex   4.050337e-001 -3.210257e-001 -2.000000e-001
      vertex   4.420750e-001 -2.677302e-001 -2.000000e-001
    endloop
  endfacet
  facet normal 2.451104e-001 -1.281406e-001 -9.609895e-001
    outer loop
      vertex   6.374434e-001 -3.605237e-001 -1.377960e-001
      vertex   4.420750e-001 -2.677302e-001 -2.000000e-001
      vertex   4.721446e-001 -2.102123e-001 -2.000000e-001
    endloop
  endfacet
  facet normal 2.599017e-001 -9.665659e-002 -9.607854e-001
    outer loop
      vertex   6.721534e-001 -2.907251e-001 -1.377960e-001
      vertex   4.721446e-001 -2.102123e-001 -2.000000e-001
      vertex   4.947682e-001 -1.493793e-001 -2.000000e-001
    endloop
  endfacet
  facet normal 2.694038e-001 -6.835622e-002 -9.605983e-001
    outer loop
      vertex   6.992478e-001 -2.176326e-001 -1.377960e-001
      vertex   4.947682e-001 -1.493793e-001 -2.000000e-001
      vertex   7.184193e-001 -1.420742e-001 -1.377960e-001
    endloop
  endfacet
  facet normal 2.600885e-001 -9.641088e-002 -9.607596e-001
    outer loop
      vertex   6.992478e-001 -2.176326e-001 -1.377960e-001
      vertex   6.721534e-001 -2.907251e-001 -1.377960e-001
      vertex   4.947682e-001 -1.493793e-001 -2.000000e-001
    endloop
  endfacet
  facet normal 2.175611e-001 -1.739509e-001 -9.604209e-001
    outer loop
      vertex   5.468309e-001 -4.871215e-001 -1.377960e-001
      vertex   4.050337e-001 -3.210257e-001 -2.000000e-001
      vertex   5.955108e-001 -4.262373e-001 -1.377960e-001
    endloop
  endfacet
  facet normal 2.346800e-001 -1.497517e-001 -9.604685e-001
    outer loop
      vertex   5.955108e-001 -4.262373e-001 -1.377960e-001
      vertex   4.420750e-001 -2.677302e-001 -2.000000e-001
      vertex   6.374434e-001 -3.605237e-001 -1.377960e-001
    endloop
  endfacet
  facet normal 2.489182e-001 -1.237844e-001 -9.605817e-001
    outer loop
      vertex   6.374434e-001 -3.605237e-001 -1.377960e-001
      vertex   4.721446e-001 -2.102123e-001 -2.000000e-001
      vertex   6.721534e-001 -2.907251e-001 -1.377960e-001
    endloop
  endfacet
  facet normal 2.693383e-001 -6.317272e-002 -9.609714e-001
    outer loop
      vertex   4.947682e-001 -1.493793e-001 -2.000000e-001
      vertex   5.095890e-001 -8.619053e-002 -2.000000e-001
      vertex   7.184193e-001 -1.420742e-001 -1.377960e-001
    endloop
  endfacet
  facet normal 2.755550e-001 -3.939195e-002 -9.604778e-001
    outer loop
      vertex   7.184193e-001 -1.420742e-001 -1.377960e-001
      vertex   5.095890e-001 -8.619053e-002 -2.000000e-001
      vertex   7.294509e-001 -6.490601e-002 -1.377960e-001
    endloop
  endfacet
  facet normal 2.747109e-001 -2.887328e-002 -9.610933e-001
    outer loop
      vertex   7.294509e-001 -6.490601e-002 -1.377960e-001
      vertex   5.095890e-001 -8.619053e-002 -2.000000e-001
      vertex   5.163733e-001 -2.164245e-002 -2.000000e-001
    endloop
  endfacet
  facet normal 2.760578e-001 5.782586e-003 -9.611236e-001
    outer loop
      vertex   7.322175e-001 1.299757e-002 -1.377960e-001
      vertex   5.163733e-001 -2.164245e-002 -2.000000e-001
      vertex   5.150141e-001 4.324694e-002 -2.000000e-001
    endloop
  endfacet
  facet normal 2.733655e-001 4.036710e-002 -9.610629e-001
    outer loop
      vertex   7.266878e-001 9.075389e-002 -1.377960e-001
      vertex   5.150141e-001 4.324694e-002 -2.000000e-001
      vertex   5.055327e-001 1.074543e-001 -2.000000e-001
    endloop
  endfacet
  facet normal 2.666610e-001 7.445309e-002 -9.609103e-001
    outer loop
      vertex   7.129244e-001 1.674819e-001 -1.377960e-001
      vertex   5.055327e-001 1.074543e-001 -2.000000e-001
      vertex   4.880789e-001 1.699670e-001 -2.000000e-001
    endloop
  endfacet
  facet normal 2.567155e-001 1.056684e-001 -9.606931e-001
    outer loop
      vertex   6.910833e-001 2.423123e-001 -1.377960e-001
      vertex   4.880789e-001 1.699670e-001 -2.000000e-001
      vertex   6.614119e-001 3.143972e-001 -1.377960e-001
    endloop
  endfacet
  facet normal 2.666270e-001 7.782166e-002 -9.606528e-001
    outer loop
      vertex   6.910833e-001 2.423123e-001 -1.377960e-001
      vertex   7.129244e-001 1.674819e-001 -1.377960e-001
      vertex   4.880789e-001 1.699670e-001 -2.000000e-001
    endloop
  endfacet
  facet normal 2.783704e-001 -9.885807e-003 -9.604229e-001
    outer loop
      vertex   7.294509e-001 -6.490601e-002 -1.377960e-001
      vertex   5.163733e-001 -2.164245e-002 -2.000000e-001
      vertex   7.322175e-001 1.299757e-002 -1.377960e-001
    endloop
  endfacet
  facet normal 2.778064e-001 1.975647e-002 -9.604339e-001
    outer loop
      vertex   7.322175e-001 1.299757e-002 -1.377960e-001
      vertex   5.150141e-001 4.324694e-002 -2.000000e-001
      vertex   7.266878e-001 9.075389e-002 -1.377960e-001
    endloop
  endfacet
  facet normal 2.738716e-001 4.912675e-002 -9.605107e-001
    outer loop
      vertex   7.266878e-001 9.075389e-002 -1.377960e-001
      vertex   5.055327e-001 1.074543e-001 -2.000000e-001
      vertex   7.129244e-001 1.674819e-001 -1.377960e-001
    endloop
  endfacet
  facet normal 2.553756e-001 1.073500e-001 -9.608638e-001
    outer loop
      vertex   4.880789e-001 1.699670e-001 -2.000000e-001
      vertex   4.629277e-001 2.297993e-001 -2.000000e-001
      vertex   6.614119e-001 3.143972e-001 -1.377960e-001
    endloop
  endfacet
  facet normal 2.445047e-001 1.326148e-001 -9.605367e-001
    outer loop
      vertex   6.614119e-001 3.143972e-001 -1.377960e-001
      vertex   4.629277e-001 2.297993e-001 -2.000000e-001
      vertex   6.242465e-001 3.829199e-001 -1.377960e-001
    endloop
  endfacet
  facet normal 2.393867e-001 1.382100e-001 -9.610369e-001
    outer loop
      vertex   6.242465e-001 3.829199e-001 -1.377960e-001
      vertex   4.629277e-001 2.297993e-001 -2.000000e-001
      vertex   4.304759e-001 2.860075e-001 -2.000000e-001
    endloop
  endfacet
  facet normal 2.199521e-001 1.669527e-001 -9.611180e-001
    outer loop
      vertex   5.800082e-001 4.471039e-001 -1.377960e-001
      vertex   4.304759e-001 2.860075e-001 -2.000000e-001
      vertex   3.912352e-001 3.377052e-001 -2.000000e-001
    endloop
  endfacet
  facet normal 1.973182e-001 1.932282e-001 -9.611079e-001
    outer loop
      vertex   5.291981e-001 5.062221e-001 -1.377960e-001
      vertex   3.912352e-001 3.377052e-001 -2.000000e-001
      vertex   3.458245e-001 3.840770e-001 -2.000000e-001
    endloop
  endfacet
  facet normal 1.717635e-001 2.167115e-001 -9.610065e-001
    outer loop
      vertex   4.723919e-001 5.596045e-001 -1.377960e-001
      vertex   3.458245e-001 3.840770e-001 -2.000000e-001
      vertex   2.949600e-001 4.243918e-001 -2.000000e-001
    endloop
  endfacet
  facet normal 1.435963e-001 2.371056e-001 -9.608127e-001
    outer loop
      vertex   4.102334e-001 6.066464e-001 -1.377960e-001
      vertex   2.949600e-001 4.243918e-001 -2.000000e-001
      vertex   2.394437e-001 4.580136e-001 -2.000000e-001
    endloop
  endfacet
  facet normal 1.170647e-001 2.520187e-001 -9.606157e-001
    outer loop
      vertex   3.434268e-001 6.468148e-001 -1.377960e-001
      vertex   2.394437e-001 4.580136e-001 -2.000000e-001
      vertex   2.727290e-001 6.796545e-001 -1.377960e-001
    endloop
  endfacet
  facet normal 1.429738e-001 2.377890e-001 -9.607366e-001
    outer loop
      vertex   3.434268e-001 6.468148e-001 -1.377960e-001
      vertex   4.102334e-001 6.066464e-001 -1.377960e-001
      vertex   2.394437e-001 4.580136e-001 -2.000000e-001
    endloop
  endfacet
  facet normal 2.292832e-001 1.580318e-001 -9.604453e-001
    outer loop
      vertex   6.242465e-001 3.829199e-001 -1.377960e-001
      vertex   4.304759e-001 2.860075e-001 -2.000000e-001
      vertex   5.800082e-001 4.471039e-001 -1.377960e-001
    endloop
  endfacet
  facet normal 2.112536e-001 1.815654e-001 -9.604197e-001
    outer loop
      vertex   5.800082e-001 4.471039e-001 -1.377960e-001
      vertex   3.912352e-001 3.377052e-001 -2.000000e-001
      vertex   5.291981e-001 5.062221e-001 -1.377960e-001
    endloop
  endfacet
  facet normal 1.906624e-001 2.028904e-001 -9.604600e-001
    outer loop
      vertex   5.291981e-001 5.062221e-001 -1.377960e-001
      vertex   3.458245e-001 3.840770e-001 -2.000000e-001
      vertex   4.723919e-001 5.596045e-001 -1.377960e-001
    endloop
  endfacet
  facet normal 1.677956e-001 2.217156e-001 -9.605659e-001
    outer loop
      vertex   4.723919e-001 5.596045e-001 -1.377960e-001
      vertex   2.949600e-001 4.243918e-001 -2.000000e-001
      vertex   4.102334e-001 6.066464e-001 -1.377960e-001
    endloop
  endfacet
  facet normal 1.125499e-001 2.527912e-001 -9.609522e-001
    outer loop
      vertex   2.394437e-001 4.580136e-001 -2.000000e-001
      vertex   1.801513e-001 4.844123e-001 -2.000000e-001
      vertex   2.727290e-001 6.796545e-001 -1.377960e-001
    endloop
  endfacet
  facet normal 8.975579e-002 2.634515e-001 -9.604880e-001
    outer loop
      vertex   2.727290e-001 6.796545e-001 -1.377960e-001
      vertex   1.801513e-001 4.844123e-001 -2.000000e-001
      vertex   1.989411e-001 7.047934e-001 -1.377960e-001
    endloop
  endfacet
  facet normal 7.984659e-002 2.644647e-001 -9.610843e-001
    outer loop
      vertex   1.989411e-001 7.047934e-001 -1.377960e-001
      vertex   1.801513e-001 4.844123e-001 -2.000000e-001
      vertex   1.180178e-001 5.031715e-001 -2.000000e-001
    endloop
  endfacet
  facet normal 4.604726e-002 2.722477e-001 -9.611248e-001
    outer loop
      vertex   1.228991e-001 7.219468e-001 -1.377960e-001
      vertex   1.180178e-001 5.031715e-001 -2.000000e-001
      vertex   5.402310e-002 5.139954e-001 -2.000000e-001
    endloop
  endfacet
  facet normal 1.156985e-002 2.760483e-001 -9.610741e-001
    outer loop
      vertex   4.546464e-002 7.309202e-001 -1.377960e-001
      vertex   5.402310e-002 5.139954e-001 -2.000000e-001
      vertex   -1.082360e-002 5.167133e-001 -2.000000e-001
    endloop
  endfacet
  facet normal -2.316078e-002 2.758144e-001 -9.609318e-001
    outer loop
      vertex   -3.248498e-002 7.316120e-001 -1.377960e-001
      vertex   -1.082360e-002 5.167133e-001 -2.000000e-001
      vertex   -7.549960e-002 5.112823e-001 -2.000000e-001
    endloop
  endfacet
  facet normal -5.625718e-002 2.717771e-001 -9.607145e-001
    outer loop
      vertex   -1.100665e-001 7.240143e-001 -1.377960e-001
      vertex   -7.549960e-002 5.112823e-001 -2.000000e-001
      vertex   -1.864010e-001 7.082133e-001 -1.377960e-001
    endloop
  endfacet
  facet normal -2.707753e-002 2.764949e-001 -9.606338e-001
    outer loop
      vertex   -1.100665e-001 7.240143e-001 -1.377960e-001
      vertex   -3.248498e-002 7.316120e-001 -1.377960e-001
      vertex   -7.549960e-002 5.112823e-001 -2.000000e-001
    endloop
  endfacet
  facet normal 6.129136e-002 2.717089e-001 -9.604258e-001
    outer loop
      vertex   1.989411e-001 7.047934e-001 -1.377960e-001
      vertex   1.180178e-001 5.031715e-001 -2.000000e-001
      vertex   1.228991e-001 7.219468e-001 -1.377960e-001
    endloop
  endfacet
  facet normal 3.206180e-002 2.766719e-001 -9.604294e-001
    outer loop
      vertex   1.228991e-001 7.219468e-001 -1.377960e-001
      vertex   5.402310e-002 5.139954e-001 -2.000000e-001
      vertex   4.546464e-002 7.309202e-001 -1.377960e-001
    endloop
  endfacet
  facet normal 2.469610e-003 2.782726e-001 -9.604990e-001
    outer loop
      vertex   4.546464e-002 7.309202e-001 -1.377960e-001
      vertex   -1.082360e-002 5.167133e-001 -2.000000e-001
      vertex   -3.248498e-002 7.316120e-001 -1.377960e-001
    endloop
  endfacet
  facet normal -5.761395e-002 2.710523e-001 -9.608388e-001
    outer loop
      vertex   -7.549960e-002 5.112823e-001 -2.000000e-001
      vertex   -1.389849e-001 4.977881e-001 -2.000000e-001
      vertex   -1.864010e-001 7.082133e-001 -1.377960e-001
    endloop
  endfacet
  facet normal -8.499950e-002 2.647963e-001 -9.605509e-001
    outer loop
      vertex   -1.864010e-001 7.082133e-001 -1.377960e-001
      vertex   -1.389849e-001 4.977881e-001 -2.000000e-001
      vertex   -2.606234e-001 6.843879e-001 -1.377960e-001
    endloop
  endfacet
  facet normal -9.092208e-002 2.610927e-001 -9.610223e-001
    outer loop
      vertex   -2.606234e-001 6.843879e-001 -1.377960e-001
      vertex   -1.389849e-001 4.977881e-001 -2.000000e-001
      vertex   -2.002784e-001 4.764434e-001 -2.000000e-001
    endloop
  endfacet
  facet normal -1.227876e-001 2.473540e-001 -9.611135e-001
    outer loop
      vertex   -3.318929e-001 6.528081e-001 -1.377960e-001
      vertex   -2.002784e-001 4.764434e-001 -2.000000e-001
      vertex   -2.584133e-001 4.475850e-001 -2.000000e-001
    endloop
  endfacet
  facet normal -1.528211e-001 2.300142e-001 -9.611135e-001
    outer loop
      vertex   -3.994019e-001 6.138318e-001 -1.377960e-001
      vertex   -2.584133e-001 4.475850e-001 -2.000000e-001
      vertex   -3.124729e-001 4.116679e-001 -2.000000e-001
    endloop
  endfacet
  facet normal -1.806518e-001 2.092872e-001 -9.610223e-001
    outer loop
      vertex   -4.623856e-001 5.679005e-001 -1.377960e-001
      vertex   -3.124729e-001 4.116679e-001 -2.000000e-001
      vertex   -3.616047e-001 3.692585e-001 -2.000000e-001
    endloop
  endfacet
  facet normal -2.059312e-001 1.854213e-001 -9.608388e-001
    outer loop
      vertex   -5.201302e-001 5.155346e-001 -1.377960e-001
      vertex   -3.616047e-001 3.692585e-001 -2.000000e-001
      vertex   -4.050337e-001 3.210257e-001 -2.000000e-001
    endloop
  endfacet
  facet normal -2.259129e-001 1.616973e-001 -9.606338e-001
    outer loop
      vertex   -5.719815e-001 4.573276e-001 -1.377960e-001
      vertex   -4.050337e-001 3.210257e-001 -2.000000e-001
      vertex   -6.173521e-001 3.939388e-001 -1.377960e-001
    endloop
  endfacet
  facet normal -2.072373e-001 1.846087e-001 -9.607145e-001
    outer loop
      vertex   -5.719815e-001 4.573276e-001 -1.377960e-001
      vertex   -5.201302e-001 5.155346e-001 -1.377960e-001
      vertex   -4.050337e-001 3.210257e-001 -2.000000e-001
    endloop
  endfacet
  facet normal -1.128020e-001 2.545726e-001 -9.604522e-001
    outer loop
      vertex   -2.606234e-001 6.843879e-001 -1.377960e-001
      vertex   -2.002784e-001 4.764434e-001 -2.000000e-001
      vertex   -3.318929e-001 6.528081e-001 -1.377960e-001
    endloop
  endfacet
  facet normal -1.392793e-001 2.412388e-001 -9.604193e-001
    outer loop
      vertex   -3.318929e-001 6.528081e-001 -1.377960e-001
      vertex   -2.584133e-001 4.475850e-001 -2.000000e-001
      vertex   -3.994019e-001 6.138318e-001 -1.377960e-001
    endloop
  endfacet
  facet normal -1.640653e-001 2.249757e-001 -9.604522e-001
    outer loop
      vertex   -3.994019e-001 6.138318e-001 -1.377960e-001
      vertex   -3.124729e-001 4.116679e-001 -2.000000e-001
      vertex   -4.623856e-001 5.679005e-001 -1.377960e-001
    endloop
  endfacet
  facet normal -1.868205e-001 2.060099e-001 -9.605509e-001
    outer loop
      vertex   -4.623856e-001 5.679005e-001 -1.377960e-001
      vertex   -3.616047e-001 3.692585e-001 -2.000000e-001
      vertex   -5.201302e-001 5.155346e-001 -1.377960e-001
    endloop
  endfacet
  facet normal -2.272819e-001 1.579650e-001 -9.609318e-001
    outer loop
      vertex   -4.050337e-001 3.210257e-001 -2.000000e-001
      vertex   -4.420750e-001 2.677302e-001 -2.000000e-001
      vertex   -6.173521e-001 3.939388e-001 -1.377960e-001
    endloop
  endfacet
  facet normal -2.422259e-001 1.369975e-001 -9.604990e-001
    outer loop
      vertex   -6.173521e-001 3.939388e-001 -1.377960e-001
      vertex   -4.420750e-001 2.677302e-001 -2.000000e-001
      vertex   -6.557278e-001 3.260866e-001 -1.377960e-001
    endloop
  endfacet
  facet normal -2.448498e-001 1.280044e-001 -9.610741e-001
    outer loop
      vertex   -6.557278e-001 3.260866e-001 -1.377960e-001
      vertex   -4.420750e-001 2.677302e-001 -2.000000e-001
      vertex   -4.721446e-001 2.102123e-001 -2.000000e-001
    endloop
  endfacet
  facet normal -2.587971e-001 9.624577e-002 -9.611248e-001
    outer loop
      vertex   -6.866738e-001 2.545396e-001 -1.377960e-001
      vertex   -4.721446e-001 2.102123e-001 -2.000000e-001
      vertex   -4.947682e-001 1.493793e-001 -2.000000e-001
    endloop
  endfacet
  facet normal -2.689564e-001 6.308316e-002 -9.610843e-001
    outer loop
      vertex   -7.098396e-001 1.801087e-001 -1.377960e-001
      vertex   -4.947682e-001 1.493793e-001 -2.000000e-001
      vertex   -5.095890e-001 8.619053e-002 -2.000000e-001
    endloop
  endfacet
  facet normal -2.751985e-001 2.892453e-002 -9.609522e-001
    outer loop
      vertex   -7.249626e-001 1.036370e-001 -1.377960e-001
      vertex   -5.095890e-001 8.619053e-002 -2.000000e-001
      vertex   -5.163733e-001 2.164245e-002 -2.000000e-001
    endloop
  endfacet
  facet normal -2.774182e-001 -4.924444e-003 -9.607366e-001
    outer loop
      vertex   -7.318715e-001 2.599105e-002 -1.377960e-001
      vertex   -5.163733e-001 2.164245e-002 -2.000000e-001
      vertex   -7.304879e-001 -5.194936e-002 -1.377960e-001
    endloop
  endfacet
  facet normal -2.767869e-001 2.462830e-002 -9.606157e-001
    outer loop
      vertex   -7.318715e-001 2.599105e-002 -1.377960e-001
      vertex   -7.249626e-001 1.036370e-001 -1.377960e-001
      vertex   -5.163733e-001 2.164245e-002 -2.000000e-001
    endloop
  endfacet
  facet normal -2.556358e-001 1.105696e-001 -9.604294e-001
    outer loop
      vertex   -6.557278e-001 3.260866e-001 -1.377960e-001
      vertex   -4.721446e-001 2.102123e-001 -2.000000e-001
      vertex   -6.866738e-001 2.545396e-001 -1.377960e-001
    endloop
  endfacet
  facet normal -2.659525e-001 8.277456e-002 -9.604258e-001
    outer loop
      vertex   -6.866738e-001 2.545396e-001 -1.377960e-001
      vertex   -4.947682e-001 1.493793e-001 -2.000000e-001
      vertex   -7.098396e-001 1.801087e-001 -1.377960e-001
    endloop
  endfacet
  facet normal -2.730336e-001 5.399496e-002 -9.604880e-001
    outer loop
      vertex   -7.098396e-001 1.801087e-001 -1.377960e-001
      vertex   -5.095890e-001 8.619053e-002 -2.000000e-001
      vertex   -7.249626e-001 1.036370e-001 -1.377960e-001
    endloop
  endfacet
  facet normal -2.771376e-001 -5.805205e-003 -9.608127e-001
    outer loop
      vertex   -5.163733e-001 2.164245e-002 -2.000000e-001
      vertex   -5.150141e-001 -4.324694e-002 -2.000000e-001
      vertex   -7.304879e-001 -5.194936e-002 -1.377960e-001
    endloop
  endfacet
  facet normal -2.759092e-001 -3.445748e-002 -9.605659e-001
    outer loop
      vertex   -7.304879e-001 -5.194936e-002 -1.377960e-001
      vertex   -5.150141e-001 -4.324694e-002 -2.000000e-001
      vertex   -7.208277e-001 -1.293012e-001 -1.377960e-001
    endloop
  endfacet
  facet normal -2.735594e-001 -4.039574e-002 -9.610065e-001
    outer loop
      vertex   -7.208277e-001 -1.293012e-001 -1.377960e-001
      vertex   -5.150141e-001 -4.324694e-002 -2.000000e-001
      vertex   -5.055327e-001 -1.074543e-001 -2.000000e-001
    endloop
  endfacet
  facet normal -2.659996e-001 -7.426843e-002 -9.611079e-001
    outer loop
      vertex   -7.030002e-001 -2.051879e-001 -1.377960e-001
      vertex   -5.055327e-001 -1.074543e-001 -2.000000e-001
      vertex   -4.880789e-001 -1.699670e-001 -2.000000e-001
    endloop
  endfacet
  facet normal -2.545614e-001 -1.070077e-001 -9.611180e-001
    outer loop
      vertex   -6.772074e-001 -2.787498e-001 -1.377960e-001
      vertex   -4.880789e-001 -1.699670e-001 -2.000000e-001
      vertex   -4.629277e-001 -2.297993e-001 -2.000000e-001
    endloop
  endfacet
  facet normal -2.393867e-001 -1.382100e-001 -9.610369e-001
    outer loop
      vertex   -6.437416e-001 -3.491534e-001 -1.377960e-001
      vertex   -4.629277e-001 -2.297993e-001 -2.000000e-001
      vertex   -4.304759e-001 -2.860075e-001 -2.000000e-001
    endloop
  endfacet
  facet normal -2.206556e-001 -1.674867e-001 -9.608638e-001
    outer loop
      vertex   -6.029820e-001 -4.156009e-001 -1.377960e-001
      vertex   -4.304759e-001 -2.860075e-001 -2.000000e-001
      vertex   -3.912352e-001 -3.377052e-001 -2.000000e-001
    endloop
  endfacet
  facet normal -2.007090e-001 -1.919949e-001 -9.606528e-001
    outer loop
      vertex   -5.553903e-001 -4.773395e-001 -1.377960e-001
      vertex   -3.912352e-001 -3.377052e-001 -2.000000e-001
      vertex   -5.015058e-001 -5.336697e-001 -1.377960e-001
    endloop
  endfacet
  facet normal -2.198693e-001 -1.694880e-001 -9.606931e-001
    outer loop
      vertex   -5.553903e-001 -4.773395e-001 -1.377960e-001
      vertex   -6.029820e-001 -4.156009e-001 -1.377960e-001
      vertex   -3.912352e-001 -3.377052e-001 -2.000000e-001
    endloop
  endfacet
  facet normal -2.710395e-001 -6.367325e-002 -9.604600e-001
    outer loop
      vertex   -7.208277e-001 -1.293012e-001 -1.377960e-001
      vertex   -5.055327e-001 -1.074543e-001 -2.000000e-001
      vertex   -7.030002e-001 -2.051879e-001 -1.377960e-001
    endloop
  endfacet
  facet normal -2.628671e-001 -9.216824e-002 -9.604197e-001
    outer loop
      vertex   -7.030002e-001 -2.051879e-001 -1.377960e-001
      vertex   -4.880789e-001 -1.699670e-001 -2.000000e-001
      vertex   -6.772074e-001 -2.787498e-001 -1.377960e-001
    endloop
  endfacet
  facet normal -2.515011e-001 -1.195492e-001 -9.604453e-001
    outer loop
      vertex   -6.772074e-001 -2.787498e-001 -1.377960e-001
      vertex   -4.629277e-001 -2.297993e-001 -2.000000e-001
      vertex   -6.437416e-001 -3.491534e-001 -1.377960e-001
    endloop
  endfacet
  facet normal -2.371001e-001 -1.454399e-001 -9.605367e-001
    outer loop
      vertex   -6.437416e-001 -3.491534e-001 -1.377960e-001
      vertex   -4.304759e-001 -2.860075e-001 -2.000000e-001
      vertex   -6.029820e-001 -4.156009e-001 -1.377960e-001
    endloop
  endfacet
  facet normal -1.978088e-001 -1.937087e-001 -9.609103e-001
    outer loop
      vertex   -3.912352e-001 -3.377052e-001 -2.000000e-001
      vertex   -3.458245e-001 -3.840770e-001 -2.000000e-001
      vertex   -5.015058e-001 -5.336697e-001 -1.377960e-001
    endloop
  endfacet
  facet normal -1.794808e-001 -2.126164e-001 -9.605107e-001
    outer loop
      vertex   -5.015058e-001 -5.336697e-001 -1.377960e-001
      vertex   -3.458245e-001 -3.840770e-001 -2.000000e-001
      vertex   -4.419391e-001 -5.839531e-001 -1.377960e-001
    endloop
  endfacet
  facet normal -1.716417e-001 -2.165579e-001 -9.610629e-001
    outer loop
      vertex   -4.419391e-001 -5.839531e-001 -1.377960e-001
      vertex   -3.458245e-001 -3.840770e-001 -2.000000e-001
      vertex   -2.949600e-001 -4.243918e-001 -2.000000e-001
    endloop
  endfacet
  facet normal -1.430368e-001 -2.361818e-001 -9.611236e-001
    outer loop
      vertex   -3.773650e-001 -6.276201e-001 -1.377960e-001
      vertex   -2.949600e-001 -4.243918e-001 -2.000000e-001
      vertex   -2.394437e-001 -4.580136e-001 -2.000000e-001
    endloop
  endfacet
  facet normal -1.123504e-001 -2.523432e-001 -9.610933e-001
    outer loop
      vertex   -3.085152e-001 -6.641760e-001 -1.377960e-001
      vertex   -2.394437e-001 -4.580136e-001 -2.000000e-001
      vertex   -1.801513e-001 -4.844123e-001 -2.000000e-001
    endloop
  endfacet
  facet normal -7.995995e-002 -2.648401e-001 -9.609714e-001
    outer loop
      vertex   -2.361698e-001 -6.932065e-001 -1.377960e-001
      vertex   -1.801513e-001 -4.844123e-001 -2.000000e-001
      vertex   -1.180178e-001 -5.031715e-001 -2.000000e-001
    endloop
  endfacet
  facet normal -4.654997e-002 -2.734487e-001 -9.607596e-001
    outer loop
      vertex   -1.611485e-001 -7.143826e-001 -1.377960e-001
      vertex   -1.180178e-001 -5.031715e-001 -2.000000e-001
      vertex   -8.430137e-002 -7.274645e-001 -1.377960e-001
    endloop
  endfacet
  facet normal -7.550367e-002 -2.674886e-001 -9.605983e-001
    outer loop
      vertex   -1.611485e-001 -7.143826e-001 -1.377960e-001
      vertex   -2.361698e-001 -6.932065e-001 -1.377960e-001
      vertex   -1.180178e-001 -5.031715e-001 -2.000000e-001
    endloop
  endfacet
  facet normal -1.560128e-001 -2.307091e-001 -9.604339e-001
    outer loop
      vertex   -4.419391e-001 -5.839531e-001 -1.377960e-001
      vertex   -2.949600e-001 -4.243918e-001 -2.000000e-001
      vertex   -3.773650e-001 -6.276201e-001 -1.377960e-001
    endloop
  endfacet
  facet normal -1.306238e-001 -2.460188e-001 -9.604229e-001
    outer loop
      vertex   -3.773650e-001 -6.276201e-001 -1.377960e-001
      vertex   -2.394437e-001 -4.580136e-001 -2.000000e-001
      vertex   -3.085152e-001 -6.641760e-001 -1.377960e-001
    endloop
  endfacet
  facet normal -1.036631e-001 -2.583336e-001 -9.604778e-001
    outer loop
      vertex   -3.085152e-001 -6.641760e-001 -1.377960e-001
      vertex   -1.801513e-001 -4.844123e-001 -2.000000e-001
      vertex   -2.361698e-001 -6.932065e-001 -1.377960e-001
    endloop
  endfacet
  facet normal -4.624381e-002 -2.734098e-001 -9.607854e-001
    outer loop
      vertex   -1.180178e-001 -5.031715e-001 -2.000000e-001
      vertex   -5.402310e-002 -5.139954e-001 -2.000000e-001
      vertex   -8.430137e-002 -7.274645e-001 -1.377960e-001
    endloop
  endfacet
  facet normal -1.725865e-002 -2.774617e-001 -9.605817e-001
    outer loop
      vertex   -8.430137e-002 -7.274645e-001 -1.377960e-001
      vertex   -5.402310e-002 -5.139954e-001 -2.000000e-001
      vertex   -6.499043e-003 -7.323040e-001 -1.377960e-001
    endloop
  endfacet
  facet normal -1.158217e-002 -2.763422e-001 -9.609895e-001
    outer loop
      vertex   -6.499043e-003 -7.323040e-001 -1.377960e-001
      vertex   -5.402310e-002 -5.139954e-001 -2.000000e-001
      vertex   1.082360e-002 -5.167133e-001 -2.000000e-001
    endloop
  endfacet
  facet normal 2.311154e-002 -2.752280e-001 -9.611011e-001
    outer loop
      vertex   7.137692e-002 -7.288461e-001 -1.377960e-001
      vertex   1.082360e-002 -5.167133e-001 -2.000000e-001
      vertex   7.549960e-002 -5.112823e-001 -2.000000e-001
    endloop
  endfacet
  facet normal 5.740986e-002 -2.700922e-001 -9.611214e-001
    outer loop
      vertex   1.484442e-001 -7.171302e-001 -1.377960e-001
      vertex   7.549960e-002 -5.112823e-001 -2.000000e-001
      vertex   1.389849e-001 -4.977881e-001 -2.000000e-001
    endloop
  endfacet
  facet normal 9.088984e-002 -2.610001e-001 -9.610505e-001
    outer loop
      vertex   2.238295e-001 -6.972889e-001 -1.377960e-001
      vertex   1.389849e-001 -4.977881e-001 -2.000000e-001
      vertex   2.002784e-001 -4.764434e-001 -2.000000e-001
    endloop
  endfacet
  facet normal 1.231366e-001 -2.480571e-001 -9.608876e-001
    outer loop
      vertex   2.966787e-001 -6.695470e-001 -1.377960e-001
      vertex   2.002784e-001 -4.764434e-001 -2.000000e-001
      vertex   2.584133e-001 -4.475850e-001 -2.000000e-001
    endloop
  endfacet
  facet normal 1.514439e-001 -2.327508e-001 -9.606726e-001
    outer loop
      vertex   3.661664e-001 -6.342188e-001 -1.377960e-001
      vertex   2.584133e-001 -4.475850e-001 -2.000000e-001
      vertex   4.315053e-001 -5.917047e-001 -1.377960e-001
    endloop
  endfacet
  facet normal 1.258461e-001 -2.475297e-001 -9.606726e-001
    outer loop
      vertex   3.661664e-001 -6.342188e-001 -1.377960e-001
      vertex   2.966787e-001 -6.695470e-001 -1.377960e-001
      vertex   2.584133e-001 -4.475850e-001 -2.000000e-001
    endloop
  endfacet
  facet normal 1.234883e-002 -2.781147e-001 -9.604685e-001
    outer loop
      vertex   -6.499043e-003 -7.323040e-001 -1.377960e-001
      vertex   1.082360e-002 -5.167133e-001 -2.000000e-001
      vertex   7.137692e-002 -7.288461e-001 -1.377960e-001
    endloop
  endfacet
  facet normal 4.186533e-002 -2.753889e-001 -9.604209e-001
    outer loop
      vertex   7.137692e-002 -7.288461e-001 -1.377960e-001
      vertex   7.549960e-002 -5.112823e-001 -2.000000e-001
      vertex   1.484442e-001 -7.171302e-001 -1.377960e-001
    endloop
  endfacet
  facet normal 7.088411e-002 -2.693176e-001 -9.604392e-001
    outer loop
      vertex   1.484442e-001 -7.171302e-001 -1.377960e-001
      vertex   1.389849e-001 -4.977881e-001 -2.000000e-001
      vertex   2.238295e-001 -6.972889e-001 -1.377960e-001
    endloop
  endfacet
  facet normal 9.900595e-002 -2.599861e-001 -9.605233e-001
    outer loop
      vertex   2.238295e-001 -6.972889e-001 -1.377960e-001
      vertex   2.002784e-001 -4.764434e-001 -2.000000e-001
      vertex   2.966787e-001 -6.695470e-001 -1.377960e-001
    endloop
  endfacet
  facet normal 4.531996e-001 -8.914091e-001 1.413777e-015
    outer loop
      vertex   2.966787e-001 -6.695470e-001 -5.000000e-002
      vertex   2.966787e-001 -6.695470e-001 -1.377960e-001
      vertex   3.661664e-001 -6.342188e-001 -5.000000e-002
    endloop
  endfacet
  facet normal 3.558811e-001 -9.345312e-001 1.457446e-015
    outer loop
      vertex   2.966787e-001 -6.695470e-001 -5.000000e-002
      vertex   2.238295e-001 -6.972889e-001 -1.377960e-001
      vertex   2.966787e-001 -6.695470e-001 -1.377960e-001
    endloop
  endfacet
  facet normal 3.558811e-001 -9.345312e-001 2.250146e-016
    outer loop
      vertex   2.966787e-001 -6.695470e-001 -5.000000e-002
      vertex   2.238295e-001 -6.972889e-001 -5.000000e-002
      vertex   2.238295e-001 -6.972889e-001 -1.377960e-001
    endloop
  endfacet
  facet normal 2.545304e-001 -9.670648e-001 1.609331e-016
    outer loop
      vertex   2.238295e-001 -6.972889e-001 -1.377960e-001
      vertex   2.238295e-001 -6.972889e-001 -5.000000e-002
      vertex   1.484442e-001 -7.171302e-001 -1.377960e-001
    endloop
  endfacet
  facet normal 2.545304e-001 -9.670648e-001 1.584180e-016
    outer loop
      vertex   1.484442e-001 -7.171302e-001 -1.377960e-001
      vertex   2.238295e-001 -6.972889e-001 -5.000000e-002
      vertex   1.484442e-001 -7.171302e-001 -5.000000e-002
    endloop
  endfacet
  facet normal 1.502958e-001 -9.886411e-001 9.505082e-017
    outer loop
      vertex   7.137692e-002 -7.288461e-001 -1.377960e-001
      vertex   1.484442e-001 -7.171302e-001 -5.000000e-002
      vertex   7.137692e-002 -7.288461e-001 -5.000000e-002
    endloop
  endfacet
  facet normal 4.435822e-002 -9.990157e-001 2.376271e-017
    outer loop
      vertex   -6.499043e-003 -7.323040e-001 -1.377960e-001
      vertex   7.137692e-002 -7.288461e-001 -5.000000e-002
      vertex   -6.499043e-003 -7.323040e-001 -5.000000e-002
    endloop
  endfacet
  facet normal -6.208194e-002 -9.980711e-001 -3.960451e-017
    outer loop
      vertex   -8.430137e-002 -7.274645e-001 -1.377960e-001
      vertex   -6.499043e-003 -7.323040e-001 -5.000000e-002
      vertex   -8.430137e-002 -7.274645e-001 -5.000000e-002
    endloop
  endfacet
  facet normal -1.678187e-001 -9.858179e-001 -9.505082e-017
    outer loop
      vertex   -1.611485e-001 -7.143826e-001 -1.377960e-001
      vertex   -8.430137e-002 -7.274645e-001 -5.000000e-002
      vertex   -1.611485e-001 -7.143826e-001 -5.000000e-002
    endloop
  endfacet
  facet normal -2.716540e-001 -9.623950e-001 -9.505082e-017
    outer loop
      vertex   -2.361698e-001 -6.932065e-001 -1.377960e-001
      vertex   -1.611485e-001 -7.143826e-001 -5.000000e-002
      vertex   -2.361698e-001 -6.932065e-001 -5.000000e-002
    endloop
  endfacet
  facet normal -3.724113e-001 -9.280678e-001 9.505082e-016
    outer loop
      vertex   -3.085152e-001 -6.641760e-001 -1.377960e-001
      vertex   -2.361698e-001 -6.932065e-001 -5.000000e-002
      vertex   -3.085152e-001 -6.641760e-001 -5.000000e-002
    endloop
  endfacet
  facet normal -4.689491e-001 -8.832252e-001 -3.168361e-016
    outer loop
      vertex   -3.773650e-001 -6.276201e-001 -1.377960e-001
      vertex   -3.085152e-001 -6.641760e-001 -5.000000e-002
      vertex   -3.773650e-001 -6.276201e-001 -5.000000e-002
    endloop
  endfacet
  facet normal -5.601735e-001 -8.283753e-001 -3.802033e-016
    outer loop
      vertex   -4.419391e-001 -5.839531e-001 -1.377960e-001
      vertex   -3.773650e-001 -6.276201e-001 -5.000000e-002
      vertex   -4.419391e-001 -5.839531e-001 -5.000000e-002
    endloop
  endfacet
  facet normal -6.450509e-001 -7.641396e-001 0.000000e+000
    outer loop
      vertex   -5.015058e-001 -5.336697e-001 -1.377960e-001
      vertex   -4.419391e-001 -5.839531e-001 -5.000000e-002
      vertex   -5.015058e-001 -5.336697e-001 -5.000000e-002
    endloop
  endfacet
  facet normal -7.226196e-001 -6.912459e-001 -5.069377e-016
    outer loop
      vertex   -5.553903e-001 -4.773395e-001 -1.377960e-001
      vertex   -5.015058e-001 -5.336697e-001 -5.000000e-002
      vertex   -5.553903e-001 -4.773395e-001 -5.000000e-002
    endloop
  endfacet
  facet normal -7.920008e-001 -6.105201e-001 3.802033e-016
    outer loop
      vertex   -6.029820e-001 -4.156009e-001 -1.377960e-001
      vertex   -5.553903e-001 -4.773395e-001 -5.000000e-002
      vertex   -6.029820e-001 -4.156009e-001 -5.000000e-002
    endloop
  endfacet
  facet normal -8.524082e-001 -5.228769e-001 3.168361e-016
    outer loop
      vertex   -6.437416e-001 -3.491534e-001 -1.377960e-001
      vertex   -6.029820e-001 -4.156009e-001 -5.000000e-002
      vertex   -6.437416e-001 -3.491534e-001 -5.000000e-002
    endloop
  endfacet
  facet normal -9.031576e-001 -4.293092e-001 2.534689e-016
    outer loop
      vertex   -6.772074e-001 -2.787498e-001 -1.377960e-001
      vertex   -6.437416e-001 -3.491534e-001 -5.000000e-002
      vertex   -6.772074e-001 -2.787498e-001 -5.000000e-002
    endloop
  endfacet
  facet normal -9.436738e-001 -3.308773e-001 1.901016e-016
    outer loop
      vertex   -7.030002e-001 -2.051879e-001 -1.377960e-001
      vertex   -6.772074e-001 -2.787498e-001 -5.000000e-002
      vertex   -7.030002e-001 -2.051879e-001 -5.000000e-002
    endloop
  endfacet
  facet normal -9.734978e-001 -2.286965e-001 1.584180e-016
    outer loop
      vertex   -7.208277e-001 -1.293012e-001 -1.377960e-001
      vertex   -7.030002e-001 -2.051879e-001 -5.000000e-002
      vertex   -7.208277e-001 -1.293012e-001 -5.000000e-002
    endloop
  endfacet
  facet normal -9.922917e-001 -1.239244e-001 7.920902e-017
    outer loop
      vertex   -7.304879e-001 -5.194936e-002 -1.377960e-001
      vertex   -7.208277e-001 -1.293012e-001 -5.000000e-002
      vertex   -7.304879e-001 -5.194936e-002 -5.000000e-002
    endloop
  endfacet
  facet normal -9.998425e-001 -1.774818e-002 1.188135e-017
    outer loop
      vertex   -7.318715e-001 2.599105e-002 -1.377960e-001
      vertex   -7.304879e-001 -5.194936e-002 -5.000000e-002
      vertex   -7.318715e-001 2.599105e-002 -5.000000e-002
    endloop
  endfacet
  facet normal -9.960647e-001 8.862911e-002 1.203977e-015
    outer loop
      vertex   -7.249626e-001 1.036370e-001 -1.377960e-001
      vertex   -7.318715e-001 2.599105e-002 -5.000000e-002
      vertex   -7.249626e-001 1.036370e-001 -5.000000e-002
    endloop
  endfacet
  facet normal -9.810011e-001 1.940022e-001 0.000000e+000
    outer loop
      vertex   -7.098396e-001 1.801087e-001 -1.377960e-001
      vertex   -7.249626e-001 1.036370e-001 -5.000000e-002
      vertex   -7.098396e-001 1.801087e-001 -5.000000e-002
    endloop
  endfacet
  facet normal -9.548224e-001 2.971772e-001 -1.584180e-016
    outer loop
      vertex   -6.866738e-001 2.545396e-001 -1.377960e-001
      vertex   -7.098396e-001 1.801087e-001 -5.000000e-002
      vertex   -6.866738e-001 2.545396e-001 -5.000000e-002
    endloop
  endfacet
  facet normal -9.178251e-001 3.969850e-001 0.000000e+000
    outer loop
      vertex   -6.557278e-001 3.260866e-001 -1.377960e-001
      vertex   -6.866738e-001 2.545396e-001 -5.000000e-002
      vertex   -6.557278e-001 3.260866e-001 -5.000000e-002
    endloop
  endfacet
  facet normal -8.704285e-001 4.922948e-001 7.604066e-016
    outer loop
      vertex   -6.173521e-001 3.939388e-001 -1.377960e-001
      vertex   -6.557278e-001 3.260866e-001 -5.000000e-002
      vertex   -6.173521e-001 3.939388e-001 -5.000000e-002
    endloop
  endfacet
  facet normal -8.131696e-001 5.820268e-001 0.000000e+000
    outer loop
      vertex   -5.719815e-001 4.573276e-001 -1.377960e-001
      vertex   -6.173521e-001 3.939388e-001 -5.000000e-002
      vertex   -5.719815e-001 4.573276e-001 -5.000000e-002
    endloop
  endfacet
  facet normal -7.466972e-001 6.651641e-001 9.505082e-016
    outer loop
      vertex   -5.201302e-001 5.155346e-001 -1.377960e-001
      vertex   -5.719815e-001 4.573276e-001 -5.000000e-002
      vertex   -5.201302e-001 5.155346e-001 -5.000000e-002
    endloop
  endfacet
  facet normal -6.717644e-001 7.407649e-001 3.802033e-016
    outer loop
      vertex   -4.623856e-001 5.679005e-001 -1.377960e-001
      vertex   -5.201302e-001 5.155346e-001 -5.000000e-002
      vertex   -4.623856e-001 5.679005e-001 -5.000000e-002
    endloop
  endfacet
  facet normal -5.892203e-001 8.079725e-001 3.802033e-016
    outer loop
      vertex   -3.994019e-001 6.138318e-001 -1.377960e-001
      vertex   -4.623856e-001 5.679005e-001 -5.000000e-002
      vertex   -3.994019e-001 6.138318e-001 -5.000000e-002
    endloop
  endfacet
  facet normal -5.000000e-001 8.660254e-001 2.534689e-016
    outer loop
      vertex   -3.318929e-001 6.528081e-001 -1.377960e-001
      vertex   -3.994019e-001 6.138318e-001 -5.000000e-002
      vertex   -3.318929e-001 6.528081e-001 -5.000000e-002
    endloop
  endfacet
  facet normal -4.051145e-001 9.142659e-001 2.534689e-016
    outer loop
      vertex   -2.606234e-001 6.843879e-001 -1.377960e-001
      vertex   -3.318929e-001 6.528081e-001 -5.000000e-002
      vertex   -2.606234e-001 6.843879e-001 -5.000000e-002
    endloop
  endfacet
  facet normal -3.056390e-001 9.521475e-001 2.217853e-016
    outer loop
      vertex   -1.864010e-001 7.082133e-001 -1.377960e-001
      vertex   -2.606234e-001 6.843879e-001 -5.000000e-002
      vertex   -1.864010e-001 7.082133e-001 -5.000000e-002
    endloop
  endfacet
  facet normal -2.027004e-001 9.792408e-001 1.267344e-016
    outer loop
      vertex   -1.100665e-001 7.240143e-001 -1.377960e-001
      vertex   -1.864010e-001 7.082133e-001 -5.000000e-002
      vertex   -1.100665e-001 7.240143e-001 -5.000000e-002
    endloop
  endfacet
  facet normal -9.746514e-002 9.952389e-001 6.336722e-017
    outer loop
      vertex   -3.248498e-002 7.316120e-001 -1.377960e-001
      vertex   -1.100665e-001 7.240143e-001 -5.000000e-002
      vertex   -3.248498e-002 7.316120e-001 -5.000000e-002
    endloop
  endfacet
  facet normal 8.874439e-003 9.999606e-001 -4.950564e-018
    outer loop
      vertex   4.546464e-002 7.309202e-001 -1.377960e-001
      vertex   -3.248498e-002 7.316120e-001 -5.000000e-002
      vertex   4.546464e-002 7.309202e-001 -5.000000e-002
    endloop
  endfacet
  facet normal 1.151135e-001 9.933523e-001 -6.336722e-017
    outer loop
      vertex   1.228991e-001 7.219468e-001 -1.377960e-001
      vertex   4.546464e-002 7.309202e-001 -5.000000e-002
      vertex   1.228991e-001 7.219468e-001 -5.000000e-002
    endloop
  endfacet
  facet normal 2.200482e-001 9.754890e-001 -1.584180e-016
    outer loop
      vertex   1.989411e-001 7.047934e-001 -1.377960e-001
      vertex   1.228991e-001 7.219468e-001 -5.000000e-002
      vertex   1.989411e-001 7.047934e-001 -5.000000e-002
    endloop
  endfacet
  facet normal 3.224897e-001 9.465730e-001 9.821918e-016
    outer loop
      vertex   2.727290e-001 6.796545e-001 -1.377960e-001
      vertex   1.989411e-001 7.047934e-001 -5.000000e-002
      vertex   2.727290e-001 6.796545e-001 -5.000000e-002
    endloop
  endfacet
  facet normal 4.212773e-001 9.069319e-001 1.140610e-015
    outer loop
      vertex   3.434268e-001 6.468148e-001 -1.377960e-001
      vertex   2.727290e-001 6.796545e-001 -5.000000e-002
      vertex   3.434268e-001 6.468148e-001 -5.000000e-002
    endloop
  endfacet
  facet normal 5.152916e-001 8.570149e-001 -3.802033e-016
    outer loop
      vertex   4.102334e-001 6.066464e-001 -1.377960e-001
      vertex   3.434268e-001 6.468148e-001 -5.000000e-002
      vertex   4.102334e-001 6.066464e-001 -5.000000e-002
    endloop
  endfacet
  facet normal 6.034675e-001 7.973876e-001 1.013875e-015
    outer loop
      vertex   4.723919e-001 5.596045e-001 -1.377960e-001
      vertex   4.102334e-001 6.066464e-001 -5.000000e-002
      vertex   4.723919e-001 5.596045e-001 -5.000000e-002
    endloop
  endfacet
  facet normal 6.848058e-001 7.287256e-001 0.000000e+000
    outer loop
      vertex   5.291981e-001 5.062221e-001 -1.377960e-001
      vertex   4.723919e-001 5.596045e-001 -5.000000e-002
      vertex   5.291981e-001 5.062221e-001 -5.000000e-002
    endloop
  endfacet
  facet normal 7.583851e-001 6.518068e-001 3.802033e-016
    outer loop
      vertex   5.800082e-001 4.471039e-001 -1.377960e-001
      vertex   5.291981e-001 5.062221e-001 -5.000000e-002
      vertex   5.800082e-001 4.471039e-001 -5.000000e-002
    endloop
  endfacet
  facet normal 8.233715e-001 5.675028e-001 3.802033e-016
    outer loop
      vertex   6.242465e-001 3.829199e-001 -1.377960e-001
      vertex   5.800082e-001 4.471039e-001 -5.000000e-002
      vertex   6.242465e-001 3.829199e-001 -5.000000e-002
    endloop
  endfacet
  facet normal 8.790288e-001 4.767688e-001 3.168361e-016
    outer loop
      vertex   6.614119e-001 3.143972e-001 -1.377960e-001
      vertex   6.242465e-001 3.829199e-001 -5.000000e-002
      vertex   6.614119e-001 3.143972e-001 -5.000000e-002
    endloop
  endfacet
  facet normal 9.247263e-001 3.806327e-001 2.534689e-016
    outer loop
      vertex   6.910833e-001 2.423123e-001 -1.377960e-001
      vertex   6.614119e-001 3.143972e-001 -5.000000e-002
      vertex   6.910833e-001 2.423123e-001 -5.000000e-002
    endloop
  endfacet
  facet normal 9.599463e-001 2.801840e-001 1.901016e-016
    outer loop
      vertex   7.129244e-001 1.674819e-001 -1.377960e-001
      vertex   6.910833e-001 2.423123e-001 -5.000000e-002
      vertex   7.129244e-001 1.674819e-001 -5.000000e-002
    endloop
  endfacet
  facet normal 9.842898e-001 1.765607e-001 9.505082e-017
    outer loop
      vertex   7.266878e-001 9.075389e-002 -1.377960e-001
      vertex   7.129244e-001 1.674819e-001 -5.000000e-002
      vertex   7.266878e-001 9.075389e-002 -5.000000e-002
    endloop
  endfacet
  facet normal 9.974808e-001 7.093682e-002 3.960451e-017
    outer loop
      vertex   7.322175e-001 1.299757e-002 -1.377960e-001
      vertex   7.266878e-001 9.075389e-002 -5.000000e-002
      vertex   7.322175e-001 1.299757e-002 -5.000000e-002
    endloop
  endfacet
  facet normal 9.993700e-001 -3.549077e-002 -2.376271e-017
    outer loop
      vertex   7.294509e-001 -6.490601e-002 -1.377960e-001
      vertex   7.322175e-001 1.299757e-002 -5.000000e-002
      vertex   7.294509e-001 -6.490601e-002 -5.000000e-002
    endloop
  endfacet
  facet normal 9.899359e-001 -1.415162e-001 0.000000e+000
    outer loop
      vertex   7.184193e-001 -1.420742e-001 -1.377960e-001
      vertex   7.294509e-001 -6.490601e-002 -5.000000e-002
      vertex   7.184193e-001 -1.420742e-001 -5.000000e-002
    endloop
  endfacet
  facet normal 9.692855e-001 -2.459382e-001 -9.505082e-017
    outer loop
      vertex   6.992478e-001 -2.176326e-001 -1.377960e-001
      vertex   7.184193e-001 -1.420742e-001 -5.000000e-002
      vertex   6.992478e-001 -2.176326e-001 -5.000000e-002
    endloop
  endfacet
  facet normal 9.376527e-001 -3.475737e-001 1.013875e-015
    outer loop
      vertex   6.721534e-001 -2.907251e-001 -1.377960e-001
      vertex   6.992478e-001 -2.176326e-001 -5.000000e-002
      vertex   6.721534e-001 -2.907251e-001 -5.000000e-002
    endloop
  endfacet
  facet normal 8.953959e-001 -4.452710e-001 0.000000e+000
    outer loop
      vertex   6.374434e-001 -3.605237e-001 -1.377960e-001
      vertex   6.721534e-001 -2.907251e-001 -5.000000e-002
      vertex   6.374434e-001 -3.605237e-001 -5.000000e-002
    endloop
  endfacet
  facet normal 8.429939e-001 -5.379232e-001 1.077243e-015
    outer loop
      vertex   5.955108e-001 -4.262373e-001 -1.377960e-001
      vertex   6.374434e-001 -3.605237e-001 -5.000000e-002
      vertex   5.955108e-001 -4.262373e-001 -5.000000e-002
    endloop
  endfacet
  facet normal 7.810404e-001 -6.244805e-001 1.013875e-015
    outer loop
      vertex   5.468309e-001 -4.871215e-001 -1.377960e-001
      vertex   5.955108e-001 -4.262373e-001 -5.000000e-002
      vertex   5.468309e-001 -4.871215e-001 -5.000000e-002
    endloop
  endfacet
  facet normal 7.102374e-001 -7.039622e-001 8.871410e-016
    outer loop
      vertex   4.919551e-001 -5.424864e-001 -1.377960e-001
      vertex   5.468309e-001 -4.871215e-001 -5.000000e-002
      vertex   4.919551e-001 -5.424864e-001 -5.000000e-002
    endloop
  endfacet
  facet normal 6.313872e-001 -7.754677e-001 -6.336722e-016
    outer loop
      vertex   4.315053e-001 -5.917047e-001 -1.377960e-001
      vertex   4.919551e-001 -5.424864e-001 -5.000000e-002
      vertex   4.315053e-001 -5.917047e-001 -5.000000e-002
    endloop
  endfacet
  facet normal 5.453831e-001 -8.381869e-001 1.394079e-015
    outer loop
      vertex   3.661664e-001 -6.342188e-001 -1.377960e-001
      vertex   4.315053e-001 -5.917047e-001 -5.000000e-002
      vertex   3.661664e-001 -6.342188e-001 -5.000000e-002
    endloop
  endfacet
  facet normal 4.531996e-001 -8.914091e-001 1.413777e-015
    outer loop
      vertex   2.966787e-001 -6.695470e-001 -1.377960e-001
      vertex   3.661664e-001 -6.342188e-001 -1.377960e-001
      vertex   3.661664e-001 -6.342188e-001 -5.000000e-002
    endloop
  endfacet
  facet normal 1.502958e-001 -9.886411e-001 9.502820e-017
    outer loop
      vertex   1.484442e-001 -7.171302e-001 -1.377960e-001
      vertex   1.484442e-001 -7.171302e-001 -5.000000e-002
      vertex   7.137692e-002 -7.288461e-001 -1.377960e-001
    endloop
  endfacet
  facet normal 4.435822e-002 -9.990157e-001 2.804657e-017
    outer loop
      vertex   7.137692e-002 -7.288461e-001 -1.377960e-001
      vertex   7.137692e-002 -7.288461e-001 -5.000000e-002
      vertex   -6.499043e-003 -7.323040e-001 -1.377960e-001
    endloop
  endfacet
  facet normal -6.208194e-002 -9.980711e-001 -3.925283e-017
    outer loop
      vertex   -6.499043e-003 -7.323040e-001 -1.377960e-001
      vertex   -6.499043e-003 -7.323040e-001 -5.000000e-002
      vertex   -8.430137e-002 -7.274645e-001 -1.377960e-001
    endloop
  endfacet
  facet normal -1.678187e-001 -9.858179e-001 -1.061075e-016
    outer loop
      vertex   -8.430137e-002 -7.274645e-001 -1.377960e-001
      vertex   -8.430137e-002 -7.274645e-001 -5.000000e-002
      vertex   -1.611485e-001 -7.143826e-001 -1.377960e-001
    endloop
  endfacet
  facet normal -2.716540e-001 -9.623950e-001 -1.717599e-016
    outer loop
      vertex   -1.611485e-001 -7.143826e-001 -1.377960e-001
      vertex   -1.611485e-001 -7.143826e-001 -5.000000e-002
      vertex   -2.361698e-001 -6.932065e-001 -1.377960e-001
    endloop
  endfacet
  facet normal -3.724113e-001 -9.280678e-001 -1.177331e-016
    outer loop
      vertex   -2.361698e-001 -6.932065e-001 -1.377960e-001
      vertex   -2.361698e-001 -6.932065e-001 -5.000000e-002
      vertex   -3.085152e-001 -6.641760e-001 -1.377960e-001
    endloop
  endfacet
  facet normal -4.689491e-001 -8.832252e-001 8.203771e-016
    outer loop
      vertex   -3.085152e-001 -6.641760e-001 -1.377960e-001
      vertex   -3.085152e-001 -6.641760e-001 -5.000000e-002
      vertex   -3.773650e-001 -6.276201e-001 -1.377960e-001
    endloop
  endfacet
  facet normal -5.601735e-001 -8.283753e-001 -3.541834e-016
    outer loop
      vertex   -3.773650e-001 -6.276201e-001 -1.377960e-001
      vertex   -3.773650e-001 -6.276201e-001 -5.000000e-002
      vertex   -4.419391e-001 -5.839531e-001 -1.377960e-001
    endloop
  endfacet
  facet normal -6.450509e-001 -7.641396e-001 -4.078493e-016
    outer loop
      vertex   -4.419391e-001 -5.839531e-001 -1.377960e-001
      vertex   -4.419391e-001 -5.839531e-001 -5.000000e-002
      vertex   -5.015058e-001 -5.336697e-001 -1.377960e-001
    endloop
  endfacet
  facet normal -7.226196e-001 -6.912459e-001 0.000000e+000
    outer loop
      vertex   -5.015058e-001 -5.336697e-001 -1.377960e-001
      vertex   -5.015058e-001 -5.336697e-001 -5.000000e-002
      vertex   -5.553903e-001 -4.773395e-001 -1.377960e-001
    endloop
  endfacet
  facet normal -7.920008e-001 -6.105201e-001 -6.155075e-016
    outer loop
      vertex   -5.553903e-001 -4.773395e-001 -1.377960e-001
      vertex   -5.553903e-001 -4.773395e-001 -5.000000e-002
      vertex   -6.029820e-001 -4.156009e-001 -1.377960e-001
    endloop
  endfacet
  facet normal -8.524082e-001 -5.228769e-001 3.306017e-016
    outer loop
      vertex   -6.029820e-001 -4.156009e-001 -1.377960e-001
      vertex   -6.029820e-001 -4.156009e-001 -5.000000e-002
      vertex   -6.437416e-001 -3.491534e-001 -1.377960e-001
    endloop
  endfacet
  facet normal -9.031576e-001 -4.293092e-001 2.714413e-016
    outer loop
      vertex   -6.437416e-001 -3.491534e-001 -1.377960e-001
      vertex   -6.437416e-001 -3.491534e-001 -5.000000e-002
      vertex   -6.772074e-001 -2.787498e-001 -1.377960e-001
    endloop
  endfacet
  facet normal -9.436738e-001 -3.308773e-001 2.092053e-016
    outer loop
      vertex   -6.772074e-001 -2.787498e-001 -1.377960e-001
      vertex   -6.772074e-001 -2.787498e-001 -5.000000e-002
      vertex   -7.030002e-001 -2.051879e-001 -1.377960e-001
    endloop
  endfacet
  facet normal -9.734978e-001 -2.286965e-001 1.445990e-016
    outer loop
      vertex   -7.030002e-001 -2.051879e-001 -1.377960e-001
      vertex   -7.030002e-001 -2.051879e-001 -5.000000e-002
      vertex   -7.208277e-001 -1.293012e-001 -1.377960e-001
    endloop
  endfacet
  facet normal -9.922917e-001 -1.239244e-001 7.835423e-017
    outer loop
      vertex   -7.208277e-001 -1.293012e-001 -1.377960e-001
      vertex   -7.208277e-001 -1.293012e-001 -5.000000e-002
      vertex   -7.304879e-001 -5.194936e-002 -1.377960e-001
    endloop
  endfacet
  facet normal -9.998425e-001 -1.774818e-002 1.122172e-017
    outer loop
      vertex   -7.304879e-001 -5.194936e-002 -1.377960e-001
      vertex   -7.304879e-001 -5.194936e-002 -5.000000e-002
      vertex   -7.318715e-001 2.599105e-002 -1.377960e-001
    endloop
  endfacet
  facet normal -9.960647e-001 8.862911e-002 -5.603793e-017
    outer loop
      vertex   -7.318715e-001 2.599105e-002 -1.377960e-001
      vertex   -7.318715e-001 2.599105e-002 -5.000000e-002
      vertex   -7.249626e-001 1.036370e-001 -1.377960e-001
    endloop
  endfacet
  facet normal -9.810011e-001 1.940022e-001 1.117861e-015
    outer loop
      vertex   -7.249626e-001 1.036370e-001 -1.377960e-001
      vertex   -7.249626e-001 1.036370e-001 -5.000000e-002
      vertex   -7.098396e-001 1.801087e-001 -1.377960e-001
    endloop
  endfacet
  facet normal -9.548224e-001 2.971772e-001 0.000000e+000
    outer loop
      vertex   -7.098396e-001 1.801087e-001 -1.377960e-001
      vertex   -7.098396e-001 1.801087e-001 -5.000000e-002
      vertex   -6.866738e-001 2.545396e-001 -1.377960e-001
    endloop
  endfacet
  facet normal -9.178251e-001 3.969850e-001 -2.510035e-016
    outer loop
      vertex   -6.866738e-001 2.545396e-001 -1.377960e-001
      vertex   -6.866738e-001 2.545396e-001 -5.000000e-002
      vertex   -6.557278e-001 3.260866e-001 -1.377960e-001
    endloop
  endfacet
  facet normal -8.704285e-001 4.922948e-001 0.000000e+000
    outer loop
      vertex   -6.557278e-001 3.260866e-001 -1.377960e-001
      vertex   -6.557278e-001 3.260866e-001 -5.000000e-002
      vertex   -6.173521e-001 3.939388e-001 -1.377960e-001
    endloop
  endfacet
  facet normal -8.131696e-001 5.820268e-001 6.602922e-016
    outer loop
      vertex   -6.173521e-001 3.939388e-001 -1.377960e-001
      vertex   -6.173521e-001 3.939388e-001 -5.000000e-002
      vertex   -5.719815e-001 4.573276e-001 -1.377960e-001
    endloop
  endfacet
  facet normal -7.466972e-001 6.651641e-001 0.000000e+000
    outer loop
      vertex   -5.719815e-001 4.573276e-001 -1.377960e-001
      vertex   -5.719815e-001 4.573276e-001 -5.000000e-002
      vertex   -5.201302e-001 5.155346e-001 -1.377960e-001
    endloop
  endfacet
  facet normal -6.717644e-001 7.407649e-001 8.494791e-016
    outer loop
      vertex   -5.201302e-001 5.155346e-001 -1.377960e-001
      vertex   -5.201302e-001 5.155346e-001 -5.000000e-002
      vertex   -4.623856e-001 5.679005e-001 -1.377960e-001
    endloop
  endfacet
  facet normal -5.892203e-001 8.079725e-001 3.725490e-016
    outer loop
      vertex   -4.623856e-001 5.679005e-001 -1.377960e-001
      vertex   -4.623856e-001 5.679005e-001 -5.000000e-002
      vertex   -3.994019e-001 6.138318e-001 -1.377960e-001
    endloop
  endfacet
  facet normal -5.000000e-001 8.660254e-001 3.161373e-016
    outer loop
      vertex   -3.994019e-001 6.138318e-001 -1.377960e-001
      vertex   -3.994019e-001 6.138318e-001 -5.000000e-002
      vertex   -3.318929e-001 6.528081e-001 -1.377960e-001
    endloop
  endfacet
  facet normal -4.051145e-001 9.142659e-001 2.561436e-016
    outer loop
      vertex   -3.318929e-001 6.528081e-001 -1.377960e-001
      vertex   -3.318929e-001 6.528081e-001 -5.000000e-002
      vertex   -2.606234e-001 6.843879e-001 -1.377960e-001
    endloop
  endfacet
  facet normal -3.056390e-001 9.521475e-001 1.932477e-016
    outer loop
      vertex   -2.606234e-001 6.843879e-001 -1.377960e-001
      vertex   -2.606234e-001 6.843879e-001 -5.000000e-002
      vertex   -1.864010e-001 7.082133e-001 -1.377960e-001
    endloop
  endfacet
  facet normal -2.027004e-001 9.792408e-001 1.281623e-016
    outer loop
      vertex   -1.864010e-001 7.082133e-001 -1.377960e-001
      vertex   -1.864010e-001 7.082133e-001 -5.000000e-002
      vertex   -1.100665e-001 7.240143e-001 -1.377960e-001
    endloop
  endfacet
  facet normal -9.746514e-002 9.952389e-001 6.162473e-017
    outer loop
      vertex   -1.100665e-001 7.240143e-001 -1.377960e-001
      vertex   -1.100665e-001 7.240143e-001 -5.000000e-002
      vertex   -3.248498e-002 7.316120e-001 -1.377960e-001
    endloop
  endfacet
  facet normal 8.874439e-003 9.999606e-001 -5.611082e-018
    outer loop
      vertex   -3.248498e-002 7.316120e-001 -1.377960e-001
      vertex   -3.248498e-002 7.316120e-001 -5.000000e-002
      vertex   4.546464e-002 7.309202e-001 -1.377960e-001
    endloop
  endfacet
  facet normal 1.151135e-001 9.933523e-001 -7.278331e-017
    outer loop
      vertex   4.546464e-002 7.309202e-001 -1.377960e-001
      vertex   4.546464e-002 7.309202e-001 -5.000000e-002
      vertex   1.228991e-001 7.219468e-001 -1.377960e-001
    endloop
  endfacet
  facet normal 2.200482e-001 9.754890e-001 -1.391309e-016
    outer loop
      vertex   1.228991e-001 7.219468e-001 -1.377960e-001
      vertex   1.228991e-001 7.219468e-001 -5.000000e-002
      vertex   1.989411e-001 7.047934e-001 -1.377960e-001
    endloop
  endfacet
  facet normal 3.224897e-001 9.465730e-001 -2.039020e-016
    outer loop
      vertex   1.989411e-001 7.047934e-001 -1.377960e-001
      vertex   1.989411e-001 7.047934e-001 -5.000000e-002
      vertex   2.727290e-001 6.796545e-001 -1.377960e-001
    endloop
  endfacet
  facet normal 4.212773e-001 9.069319e-001 8.804970e-016
    outer loop
      vertex   2.727290e-001 6.796545e-001 -1.377960e-001
      vertex   2.727290e-001 6.796545e-001 -5.000000e-002
      vertex   3.434268e-001 6.468148e-001 -1.377960e-001
    endloop
  endfacet
  facet normal 5.152916e-001 8.570149e-001 1.083737e-015
    outer loop
      vertex   3.434268e-001 6.468148e-001 -1.377960e-001
      vertex   3.434268e-001 6.468148e-001 -5.000000e-002
      vertex   4.102334e-001 6.066464e-001 -1.377960e-001
    endloop
  endfacet
  facet normal 6.034675e-001 7.973876e-001 -3.815571e-016
    outer loop
      vertex   4.102334e-001 6.066464e-001 -1.377960e-001
      vertex   4.102334e-001 6.066464e-001 -5.000000e-002
      vertex   4.723919e-001 5.596045e-001 -1.377960e-001
    endloop
  endfacet
  facet normal 6.848058e-001 7.287256e-001 9.215093e-016
    outer loop
      vertex   4.723919e-001 5.596045e-001 -1.377960e-001
      vertex   4.723919e-001 5.596045e-001 -5.000000e-002
      vertex   5.291981e-001 5.062221e-001 -1.377960e-001
    endloop
  endfacet
  facet normal 7.583851e-001 6.518068e-001 -0.000000e+000
    outer loop
      vertex   5.291981e-001 5.062221e-001 -1.377960e-001
      vertex   5.291981e-001 5.062221e-001 -5.000000e-002
      vertex   5.800082e-001 4.471039e-001 -1.377960e-001
    endloop
  endfacet
  facet normal 8.233715e-001 5.675028e-001 3.588176e-016
    outer loop
      vertex   5.800082e-001 4.471039e-001 -1.377960e-001
      vertex   5.800082e-001 4.471039e-001 -5.000000e-002
      vertex   6.242465e-001 3.829199e-001 -1.377960e-001
    endloop
  endfacet
  facet normal 8.790288e-001 4.767688e-001 3.014488e-016
    outer loop
      vertex   6.242465e-001 3.829199e-001 -1.377960e-001
      vertex   6.242465e-001 3.829199e-001 -5.000000e-002
      vertex   6.614119e-001 3.143972e-001 -1.377960e-001
    endloop
  endfacet
  facet normal 9.247263e-001 3.806327e-001 2.406644e-016
    outer loop
      vertex   6.614119e-001 3.143972e-001 -1.377960e-001
      vertex   6.614119e-001 3.143972e-001 -5.000000e-002
      vertex   6.910833e-001 2.423123e-001 -1.377960e-001
    endloop
  endfacet
  facet normal 9.599463e-001 2.801840e-001 1.771532e-016
    outer loop
      vertex   6.910833e-001 2.423123e-001 -1.377960e-001
      vertex   6.910833e-001 2.423123e-001 -5.000000e-002
      vertex   7.129244e-001 1.674819e-001 -1.377960e-001
    endloop
  endfacet
  facet normal 9.842898e-001 1.765607e-001 1.116348e-016
    outer loop
      vertex   7.129244e-001 1.674819e-001 -1.377960e-001
      vertex   7.129244e-001 1.674819e-001 -5.000000e-002
      vertex   7.266878e-001 9.075389e-002 -1.377960e-001
    endloop
  endfacet
  facet normal 9.974808e-001 7.093682e-002 4.485154e-017
    outer loop
      vertex   7.266878e-001 9.075389e-002 -1.377960e-001
      vertex   7.266878e-001 9.075389e-002 -5.000000e-002
      vertex   7.322175e-001 1.299757e-002 -1.377960e-001
    endloop
  endfacet
  facet normal 9.993700e-001 -3.549077e-002 -2.243991e-017
    outer loop
      vertex   7.322175e-001 1.299757e-002 -1.377960e-001
      vertex   7.322175e-001 1.299757e-002 -5.000000e-002
      vertex   7.294509e-001 -6.490601e-002 -1.377960e-001
    endloop
  endfacet
  facet normal 9.899359e-001 -1.415162e-001 -8.947711e-017
    outer loop
      vertex   7.294509e-001 -6.490601e-002 -1.377960e-001
      vertex   7.294509e-001 -6.490601e-002 -5.000000e-002
      vertex   7.184193e-001 -1.420742e-001 -1.377960e-001
    endloop
  endfacet
  facet normal 9.692855e-001 -2.459382e-001 0.000000e+000
    outer loop
      vertex   7.184193e-001 -1.420742e-001 -1.377960e-001
      vertex   7.184193e-001 -1.420742e-001 -5.000000e-002
      vertex   6.992478e-001 -2.176326e-001 -1.377960e-001
    endloop
  endfacet
  facet normal 9.376527e-001 -3.475737e-001 -1.098810e-016
    outer loop
      vertex   6.992478e-001 -2.176326e-001 -1.377960e-001
      vertex   6.992478e-001 -2.176326e-001 -5.000000e-002
      vertex   6.721534e-001 -2.907251e-001 -1.377960e-001
    endloop
  endfacet
  facet normal 8.953959e-001 -4.452710e-001 8.507385e-016
    outer loop
      vertex   6.721534e-001 -2.907251e-001 -1.377960e-001
      vertex   6.721534e-001 -2.907251e-001 -5.000000e-002
      vertex   6.374434e-001 -3.605237e-001 -1.377960e-001
    endloop
  endfacet
  facet normal 8.429939e-001 -5.379232e-001 0.000000e+000
    outer loop
      vertex   6.374434e-001 -3.605237e-001 -1.377960e-001
      vertex   6.374434e-001 -3.605237e-001 -5.000000e-002
      vertex   5.955108e-001 -4.262373e-001 -1.377960e-001
    endloop
  endfacet
  facet normal 7.810404e-001 -6.244805e-001 9.876639e-016
    outer loop
      vertex   5.955108e-001 -4.262373e-001 -1.377960e-001
      vertex   5.955108e-001 -4.262373e-001 -5.000000e-002
      vertex   5.468309e-001 -4.871215e-001 -1.377960e-001
    endloop
  endfacet
  facet normal 7.102374e-001 -7.039622e-001 8.981301e-016
    outer loop
      vertex   5.468309e-001 -4.871215e-001 -1.377960e-001
      vertex   5.468309e-001 -4.871215e-001 -5.000000e-002
      vertex   4.919551e-001 -5.424864e-001 -1.377960e-001
    endloop
  endfacet
  facet normal 6.313872e-001 -7.754677e-001 7.984201e-016
    outer loop
      vertex   4.919551e-001 -5.424864e-001 -1.377960e-001
      vertex   4.919551e-001 -5.424864e-001 -5.000000e-002
      vertex   4.315053e-001 -5.917047e-001 -1.377960e-001
    endloop
  endfacet
  facet normal 5.453831e-001 -8.381869e-001 -7.150966e-016
    outer loop
      vertex   4.315053e-001 -5.917047e-001 -1.377960e-001
      vertex   4.315053e-001 -5.917047e-001 -5.000000e-002
      vertex   3.661664e-001 -6.342188e-001 -1.377960e-001
    endloop
  endfacet
  facet normal 0.000000e+000 0.000000e+000 -1.000000e+000
    outer loop
      vertex   2.002784e-001 -4.764434e-001 -2.000000e-001
      vertex   -2.394437e-001 -4.580136e-001 -2.000000e-001
      vertex   2.584133e-001 -4.475850e-001 -2.000000e-001
    endloop
  endfacet
  facet normal -0.000000e+000 0.000000e+000 -1.000000e+000
    outer loop
      vertex   2.002784e-001 -4.764434e-001 -2.000000e-001
      vertex   -1.801513e-001 -4.844123e-001 -2.000000e-001
      vertex   -2.394437e-001 -4.580136e-001 -2.000000e-001
    endloop
  endfacet
  facet normal -0.000000e+000 0.000000e+000 -1.000000e+000
    outer loop
      vertex   2.002784e-001 -4.764434e-001 -2.000000e-001
      vertex   1.389849e-001 -4.977881e-001 -2.000000e-001
      vertex   -1.801513e-001 -4.844123e-001 -2.000000e-001
    endloop
  endfacet
  facet normal 0.000000e+000 -0.000000e+000 -1.000000e+000
    outer loop
      vertex   -1.801513e-001 -4.844123e-001 -2.000000e-001
      vertex   1.389849e-001 -4.977881e-001 -2.000000e-001
      vertex   -1.180178e-001 -5.031715e-001 -2.000000e-001
    endloop
  endfacet
  facet normal 0.000000e+000 -0.000000e+000 -1.000000e+000
    outer loop
      vertex   -1.180178e-001 -5.031715e-001 -2.000000e-001
      vertex   1.389849e-001 -4.977881e-001 -2.000000e-001
      vertex   7.549960e-002 -5.112823e-001 -2.000000e-001
    endloop
  endfacet
  facet normal 0.000000e+000 -0.000000e+000 -1.000000e+000
    outer loop
      vertex   -5.402310e-002 -5.139954e-001 -2.000000e-001
      vertex   7.549960e-002 -5.112823e-001 -2.000000e-001
      vertex   1.082360e-002 -5.167133e-001 -2.000000e-001
    endloop
  endfacet
  facet normal 0.000000e+000 0.000000e+000 -1.000000e+000
    outer loop
      vertex   -5.402310e-002 -5.139954e-001 -2.000000e-001
      vertex   -1.180178e-001 -5.031715e-001 -2.000000e-001
      vertex   7.549960e-002 -5.112823e-001 -2.000000e-001
    endloop
  endfacet
  facet normal 0.000000e+000 0.000000e+000 -1.000000e+000
    outer loop
      vertex   -2.394437e-001 -4.580136e-001 -2.000000e-001
      vertex   -2.949600e-001 -4.243918e-001 -2.000000e-001
      vertex   2.584133e-001 -4.475850e-001 -2.000000e-001
    endloop
  endfacet
  facet normal 0.000000e+000 0.000000e+000 -1.000000e+000
    outer loop
      vertex   2.584133e-001 -4.475850e-001 -2.000000e-001
      vertex   -2.949600e-001 -4.243918e-001 -2.000000e-001
      vertex   3.124729e-001 -4.116679e-001 -2.000000e-001
    endloop
  endfacet
  facet normal -0.000000e+000 0.000000e+000 -1.000000e+000
    outer loop
      vertex   3.124729e-001 -4.116679e-001 -2.000000e-001
      vertex   -2.949600e-001 -4.243918e-001 -2.000000e-001
      vertex   -3.458245e-001 -3.840770e-001 -2.000000e-001
    endloop
  endfacet
  facet normal -0.000000e+000 0.000000e+000 -1.000000e+000
    outer loop
      vertex   3.616047e-001 -3.692585e-001 -2.000000e-001
      vertex   -3.458245e-001 -3.840770e-001 -2.000000e-001
      vertex   -3.912352e-001 -3.377052e-001 -2.000000e-001
    endloop
  endfacet
  facet normal -0.000000e+000 0.000000e+000 -1.000000e+000
    outer loop
      vertex   4.050337e-001 -3.210257e-001 -2.000000e-001
      vertex   -3.912352e-001 -3.377052e-001 -2.000000e-001
      vertex   -4.304759e-001 -2.860075e-001 -2.000000e-001
    endloop
  endfacet
  facet normal -0.000000e+000 0.000000e+000 -1.000000e+000
    outer loop
      vertex   4.420750e-001 -2.677302e-001 -2.000000e-001
      vertex   -4.304759e-001 -2.860075e-001 -2.000000e-001
      vertex   -4.629277e-001 -2.297993e-001 -2.000000e-001
    endloop
  endfacet
  facet normal -0.000000e+000 0.000000e+000 -1.000000e+000
    outer loop
      vertex   4.721446e-001 -2.102123e-001 -2.000000e-001
      vertex   -4.629277e-001 -2.297993e-001 -2.000000e-001
      vertex   -4.880789e-001 -1.699670e-001 -2.000000e-001
    endloop
  endfacet
  facet normal -0.000000e+000 0.000000e+000 -1.000000e+000
    outer loop
      vertex   4.947682e-001 -1.493793e-001 -2.000000e-001
      vertex   -4.880789e-001 -1.699670e-001 -2.000000e-001
      vertex   -5.055327e-001 -1.074543e-001 -2.000000e-001
    endloop
  endfacet
  facet normal -0.000000e+000 -0.000000e+000 -1.000000e+000
    outer loop
      vertex   -5.150141e-001 -4.324694e-002 -2.000000e-001
      vertex   4.947682e-001 -1.493793e-001 -2.000000e-001
      vertex   -5.055327e-001 -1.074543e-001 -2.000000e-001
    endloop
  endfacet
  facet normal 0.000000e+000 0.000000e+000 -1.000000e+000
    outer loop
      vertex   -5.150141e-001 -4.324694e-002 -2.000000e-001
      vertex   -5.163733e-001 2.164245e-002 -2.000000e-001
      vertex   4.947682e-001 -1.493793e-001 -2.000000e-001
    endloop
  endfacet
  facet normal 0.000000e+000 0.000000e+000 -1.000000e+000
    outer loop
      vertex   4.947682e-001 -1.493793e-001 -2.000000e-001
      vertex   -5.163733e-001 2.164245e-002 -2.000000e-001
      vertex   -5.095890e-001 8.619053e-002 -2.000000e-001
    endloop
  endfacet
  facet normal -0.000000e+000 -0.000000e+000 -1.000000e+000
    outer loop
      vertex   -4.947682e-001 1.493793e-001 -2.000000e-001
      vertex   4.947682e-001 -1.493793e-001 -2.000000e-001
      vertex   -5.095890e-001 8.619053e-002 -2.000000e-001
    endloop
  endfacet
  facet normal 0.000000e+000 0.000000e+000 -1.000000e+000
    outer loop
      vertex   -4.947682e-001 1.493793e-001 -2.000000e-001
      vertex   -4.721446e-001 2.102123e-001 -2.000000e-001
      vertex   4.947682e-001 -1.493793e-001 -2.000000e-001
    endloop
  endfacet
  facet normal 0.000000e+000 0.000000e+000 -1.000000e+000
    outer loop
      vertex   4.947682e-001 -1.493793e-001 -2.000000e-001
      vertex   -4.721446e-001 2.102123e-001 -2.000000e-001
      vertex   -4.420750e-001 2.677302e-001 -2.000000e-001
    endloop
  endfacet
  facet normal -0.000000e+000 -0.000000e+000 -1.000000e+000
    outer loop
      vertex   -4.050337e-001 3.210257e-001 -2.000000e-001
      vertex   4.947682e-001 -1.493793e-001 -2.000000e-001
      vertex   -4.420750e-001 2.677302e-001 -2.000000e-001
    endloop
  endfacet
  facet normal 0.000000e+000 0.000000e+000 -1.000000e+000
    outer loop
      vertex   -4.050337e-001 3.210257e-001 -2.000000e-001
      vertex   -3.616047e-001 3.692585e-001 -2.000000e-001
      vertex   4.947682e-001 -1.493793e-001 -2.000000e-001
    endloop
  endfacet
  facet normal 0.000000e+000 0.000000e+000 -1.000000e+000
    outer loop
      vertex   4.947682e-001 -1.493793e-001 -2.000000e-001
      vertex   -3.616047e-001 3.692585e-001 -2.000000e-001
      vertex   -3.124729e-001 4.116679e-001 -2.000000e-001
    endloop
  endfacet
  facet normal -0.000000e+000 -0.000000e+000 -1.000000e+000
    outer loop
      vertex   -2.584133e-001 4.475850e-001 -2.000000e-001
      vertex   4.947682e-001 -1.493793e-001 -2.000000e-001
      vertex   -3.124729e-001 4.116679e-001 -2.000000e-001
    endloop
  endfacet
  facet normal 0.000000e+000 0.000000e+000 -1.000000e+000
    outer loop
      vertex   -2.584133e-001 4.475850e-001 -2.000000e-001
      vertex   -2.002784e-001 4.764434e-001 -2.000000e-001
      vertex   4.947682e-001 -1.493793e-001 -2.000000e-001
    endloop
  endfacet
  facet normal 0.000000e+000 0.000000e+000 -1.000000e+000
    outer loop
      vertex   4.947682e-001 -1.493793e-001 -2.000000e-001
      vertex   -2.002784e-001 4.764434e-001 -2.000000e-001
      vertex   -1.389849e-001 4.977881e-001 -2.000000e-001
    endloop
  endfacet
  facet normal -0.000000e+000 -0.000000e+000 -1.000000e+000
    outer loop
      vertex   -7.549960e-002 5.112823e-001 -2.000000e-001
      vertex   4.947682e-001 -1.493793e-001 -2.000000e-001
      vertex   -1.389849e-001 4.977881e-001 -2.000000e-001
    endloop
  endfacet
  facet normal 0.000000e+000 0.000000e+000 -1.000000e+000
    outer loop
      vertex   -7.549960e-002 5.112823e-001 -2.000000e-001
      vertex   -1.082360e-002 5.167133e-001 -2.000000e-001
      vertex   4.947682e-001 -1.493793e-001 -2.000000e-001
    endloop
  endfacet
  facet normal 0.000000e+000 0.000000e+000 -1.000000e+000
    outer loop
      vertex   4.947682e-001 -1.493793e-001 -2.000000e-001
      vertex   -1.082360e-002 5.167133e-001 -2.000000e-001
      vertex   5.402310e-002 5.139954e-001 -2.000000e-001
    endloop
  endfacet
  facet normal -0.000000e+000 -0.000000e+000 -1.000000e+000
    outer loop
      vertex   1.180178e-001 5.031715e-001 -2.000000e-001
      vertex   4.947682e-001 -1.493793e-001 -2.000000e-001
      vertex   5.402310e-002 5.139954e-001 -2.000000e-001
    endloop
  endfacet
  facet normal 0.000000e+000 0.000000e+000 -1.000000e+000
    outer loop
      vertex   1.180178e-001 5.031715e-001 -2.000000e-001
      vertex   1.801513e-001 4.844123e-001 -2.000000e-001
      vertex   4.947682e-001 -1.493793e-001 -2.000000e-001
    endloop
  endfacet
  facet normal 0.000000e+000 0.000000e+000 -1.000000e+000
    outer loop
      vertex   4.947682e-001 -1.493793e-001 -2.000000e-001
      vertex   1.801513e-001 4.844123e-001 -2.000000e-001
      vertex   2.394437e-001 4.580136e-001 -2.000000e-001
    endloop
  endfacet
  facet normal -0.000000e+000 -0.000000e+000 -1.000000e+000
    outer loop
      vertex   2.949600e-001 4.243918e-001 -2.000000e-001
      vertex   4.947682e-001 -1.493793e-001 -2.000000e-001
      vertex   2.394437e-001 4.580136e-001 -2.000000e-001
    endloop
  endfacet
  facet normal 0.000000e+000 0.000000e+000 -1.000000e+000
    outer loop
      vertex   2.949600e-001 4.243918e-001 -2.000000e-001
      vertex   3.458245e-001 3.840770e-001 -2.000000e-001
      vertex   4.947682e-001 -1.493793e-001 -2.000000e-001
    endloop
  endfacet
  facet normal 0.000000e+000 0.000000e+000 -1.000000e+000
    outer loop
      vertex   4.947682e-001 -1.493793e-001 -2.000000e-001
      vertex   3.458245e-001 3.840770e-001 -2.000000e-001
      vertex   3.912352e-001 3.377052e-001 -2.000000e-001
    endloop
  endfacet
  facet normal -0.000000e+000 -0.000000e+000 -1.000000e+000
    outer loop
      vertex   4.304759e-001 2.860075e-001 -2.000000e-001
      vertex   4.947682e-001 -1.493793e-001 -2.000000e-001
      vertex   3.912352e-001 3.377052e-001 -2.000000e-001
    endloop
  endfacet
  facet normal 0.000000e+000 0.000000e+000 -1.000000e+000
    outer loop
      vertex   4.304759e-001 2.860075e-001 -2.000000e-001
      vertex   4.629277e-001 2.297993e-001 -2.000000e-001
      vertex   4.947682e-001 -1.493793e-001 -2.000000e-001
    endloop
  endfacet
  facet normal 0.000000e+000 0.000000e+000 -1.000000e+000
    outer loop
      vertex   4.947682e-001 -1.493793e-001 -2.000000e-001
      vertex   4.629277e-001 2.297993e-001 -2.000000e-001
      vertex   4.880789e-001 1.699670e-001 -2.000000e-001
    endloop
  endfacet
  facet normal -0.000000e+000 0.000000e+000 -1.000000e+000
    outer loop
      vertex   5.055327e-001 1.074543e-001 -2.000000e-001
      vertex   4.947682e-001 -1.493793e-001 -2.000000e-001
      vertex   4.880789e-001 1.699670e-001 -2.000000e-001
    endloop
  endfacet
  facet normal 0.000000e+000 -0.000000e+000 -1.000000e+000
    outer loop
      vertex   5.055327e-001 1.074543e-001 -2.000000e-001
      vertex   5.095890e-001 -8.619053e-002 -2.000000e-001
      vertex   4.947682e-001 -1.493793e-001 -2.000000e-001
    endloop
  endfacet
  facet normal 0.000000e+000 -0.000000e+000 -1.000000e+000
    outer loop
      vertex   5.055327e-001 1.074543e-001 -2.000000e-001
      vertex   5.150141e-001 4.324694e-002 -2.000000e-001
      vertex   5.095890e-001 -8.619053e-002 -2.000000e-001
    endloop
  endfacet
  facet normal 0.000000e+000 0.000000e+000 -1.000000e+000
    outer loop
      vertex   5.095890e-001 -8.619053e-002 -2.000000e-001
      vertex   5.150141e-001 4.324694e-002 -2.000000e-001
      vertex   5.163733e-001 -2.164245e-002 -2.000000e-001
    endloop
  endfacet
  facet normal 0.000000e+000 0.000000e+000 -1.000000e+000
    outer loop
      vertex   3.124729e-001 -4.116679e-001 -2.000000e-001
      vertex   -3.458245e-001 -3.840770e-001 -2.000000e-001
      vertex   3.616047e-001 -3.692585e-001 -2.000000e-001
    endloop
  endfacet
  facet normal 0.000000e+000 0.000000e+000 -1.000000e+000
    outer loop
      vertex   3.616047e-001 -3.692585e-001 -2.000000e-001
      vertex   -3.912352e-001 -3.377052e-001 -2.000000e-001
      vertex   4.050337e-001 -3.210257e-001 -2.000000e-001
    endloop
  endfacet
  facet normal 0.000000e+000 0.000000e+000 -1.000000e+000
    outer loop
      vertex   4.050337e-001 -3.210257e-001 -2.000000e-001
      vertex   -4.304759e-001 -2.860075e-001 -2.000000e-001
      vertex   4.420750e-001 -2.677302e-001 -2.000000e-001
    endloop
  endfacet
  facet normal 0.000000e+000 0.000000e+000 -1.000000e+000
    outer loop
      vertex   4.420750e-001 -2.677302e-001 -2.000000e-001
      vertex   -4.629277e-001 -2.297993e-001 -2.000000e-001
      vertex   4.721446e-001 -2.102123e-001 -2.000000e-001
    endloop
  endfacet
  facet normal 0.000000e+000 0.000000e+000 -1.000000e+000
    outer loop
      vertex   4.721446e-001 -2.102123e-001 -2.000000e-001
      vertex   -4.880789e-001 -1.699670e-001 -2.000000e-001
      vertex   4.947682e-001 -1.493793e-001 -2.000000e-001
    endloop
  endfacet
  facet normal 0.000000e+000 0.000000e+000 1.000000e+000
    outer loop
      vertex   4.315053e-001 -5.917047e-001 -5.000000e-002
      vertex   -3.773650e-001 -6.276201e-001 -5.000000e-002
      vertex   3.661664e-001 -6.342188e-001 -5.000000e-002
    endloop
  endfacet
  facet normal 0.000000e+000 0.000000e+000 1.000000e+000
    outer loop
      vertex   4.315053e-001 -5.917047e-001 -5.000000e-002
      vertex   -4.419391e-001 -5.839531e-001 -5.000000e-002
      vertex   -3.773650e-001 -6.276201e-001 -5.000000e-002
    endloop
  endfacet
  facet normal 0.000000e+000 -0.000000e+000 1.000000e+000
    outer loop
      vertex   4.315053e-001 -5.917047e-001 -5.000000e-002
      vertex   4.919551e-001 -5.424864e-001 -5.000000e-002
      vertex   -4.419391e-001 -5.839531e-001 -5.000000e-002
    endloop
  endfacet
  facet normal 0.000000e+000 -0.000000e+000 1.000000e+000
    outer loop
      vertex   -4.419391e-001 -5.839531e-001 -5.000000e-002
      vertex   4.919551e-001 -5.424864e-001 -5.000000e-002
      vertex   -5.015058e-001 -5.336697e-001 -5.000000e-002
    endloop
  endfacet
  facet normal -0.000000e+000 0.000000e+000 1.000000e+000
    outer loop
      vertex   -5.015058e-001 -5.336697e-001 -5.000000e-002
      vertex   4.919551e-001 -5.424864e-001 -5.000000e-002
      vertex   5.468309e-001 -4.871215e-001 -5.000000e-002
    endloop
  endfacet
  facet normal -0.000000e+000 0.000000e+000 1.000000e+000
    outer loop
      vertex   -5.553903e-001 -4.773395e-001 -5.000000e-002
      vertex   5.468309e-001 -4.871215e-001 -5.000000e-002
      vertex   5.955108e-001 -4.262373e-001 -5.000000e-002
    endloop
  endfacet
  facet normal -0.000000e+000 0.000000e+000 1.000000e+000
    outer loop
      vertex   -6.029820e-001 -4.156009e-001 -5.000000e-002
      vertex   5.955108e-001 -4.262373e-001 -5.000000e-002
      vertex   6.374434e-001 -3.605237e-001 -5.000000e-002
    endloop
  endfacet
  facet normal -0.000000e+000 0.000000e+000 1.000000e+000
    outer loop
      vertex   -6.437416e-001 -3.491534e-001 -5.000000e-002
      vertex   6.374434e-001 -3.605237e-001 -5.000000e-002
      vertex   6.721534e-001 -2.907251e-001 -5.000000e-002
    endloop
  endfacet
  facet normal -0.000000e+000 0.000000e+000 1.000000e+000
    outer loop
      vertex   -6.772074e-001 -2.787498e-001 -5.000000e-002
      vertex   6.721534e-001 -2.907251e-001 -5.000000e-002
      vertex   6.992478e-001 -2.176326e-001 -5.000000e-002
    endloop
  endfacet
  facet normal -0.000000e+000 0.000000e+000 1.000000e+000
    outer loop
      vertex   -7.030002e-001 -2.051879e-001 -5.000000e-002
      vertex   6.992478e-001 -2.176326e-001 -5.000000e-002
      vertex   7.184193e-001 -1.420742e-001 -5.000000e-002
    endloop
  endfacet
  facet normal -0.000000e+000 0.000000e+000 1.000000e+000
    outer loop
      vertex   -7.208277e-001 -1.293012e-001 -5.000000e-002
      vertex   7.184193e-001 -1.420742e-001 -5.000000e-002
      vertex   7.294509e-001 -6.490601e-002 -5.000000e-002
    endloop
  endfacet
  facet normal -0.000000e+000 -0.000000e+000 1.000000e+000
    outer loop
      vertex   -7.304879e-001 -5.194936e-002 -5.000000e-002
      vertex   7.294509e-001 -6.490601e-002 -5.000000e-002
      vertex   -7.318715e-001 2.599105e-002 -5.000000e-002
    endloop
  endfacet
  facet normal -0.000000e+000 0.000000e+000 1.000000e+000
    outer loop
      vertex   -7.304879e-001 -5.194936e-002 -5.000000e-002
      vertex   -7.208277e-001 -1.293012e-001 -5.000000e-002
      vertex   7.294509e-001 -6.490601e-002 -5.000000e-002
    endloop
  endfacet
  facet normal 0.000000e+000 -0.000000e+000 1.000000e+000
    outer loop
      vertex   -5.015058e-001 -5.336697e-001 -5.000000e-002
      vertex   5.468309e-001 -4.871215e-001 -5.000000e-002
      vertex   -5.553903e-001 -4.773395e-001 -5.000000e-002
    endloop
  endfacet
  facet normal 0.000000e+000 -0.000000e+000 1.000000e+000
    outer loop
      vertex   -5.553903e-001 -4.773395e-001 -5.000000e-002
      vertex   5.955108e-001 -4.262373e-001 -5.000000e-002
      vertex   -6.029820e-001 -4.156009e-001 -5.000000e-002
    endloop
  endfacet
  facet normal 0.000000e+000 -0.000000e+000 1.000000e+000
    outer loop
      vertex   -6.029820e-001 -4.156009e-001 -5.000000e-002
      vertex   6.374434e-001 -3.605237e-001 -5.000000e-002
      vertex   -6.437416e-001 -3.491534e-001 -5.000000e-002
    endloop
  endfacet
  facet normal 0.000000e+000 -0.000000e+000 1.000000e+000
    outer loop
      vertex   -6.437416e-001 -3.491534e-001 -5.000000e-002
      vertex   6.721534e-001 -2.907251e-001 -5.000000e-002
      vertex   -6.772074e-001 -2.787498e-001 -5.000000e-002
    endloop
  endfacet
  facet normal 0.000000e+000 -0.000000e+000 1.000000e+000
    outer loop
      vertex   -6.772074e-001 -2.787498e-001 -5.000000e-002
      vertex   6.992478e-001 -2.176326e-001 -5.000000e-002
      vertex   -7.030002e-001 -2.051879e-001 -5.000000e-002
    endloop
  endfacet
  facet normal 0.000000e+000 -0.000000e+000 1.000000e+000
    outer loop
      vertex   -7.030002e-001 -2.051879e-001 -5.000000e-002
      vertex   7.184193e-001 -1.420742e-001 -5.000000e-002
      vertex   -7.208277e-001 -1.293012e-001 -5.000000e-002
    endloop
  endfacet
  facet normal 0.000000e+000 0.000000e+000 1.000000e+000
    outer loop
      vertex   7.322175e-001 1.299757e-002 -5.000000e-002
      vertex   7.266878e-001 9.075389e-002 -5.000000e-002
      vertex   7.294509e-001 -6.490601e-002 -5.000000e-002
    endloop
  endfacet
  facet normal 0.000000e+000 0.000000e+000 1.000000e+000
    outer loop
      vertex   7.294509e-001 -6.490601e-002 -5.000000e-002
      vertex   7.266878e-001 9.075389e-002 -5.000000e-002
      vertex   7.129244e-001 1.674819e-001 -5.000000e-002
    endloop
  endfacet
  facet normal -0.000000e+000 -0.000000e+000 1.000000e+000
    outer loop
      vertex   6.910833e-001 2.423123e-001 -5.000000e-002
      vertex   7.294509e-001 -6.490601e-002 -5.000000e-002
      vertex   7.129244e-001 1.674819e-001 -5.000000e-002
    endloop
  endfacet
  facet normal 0.000000e+000 0.000000e+000 1.000000e+000
    outer loop
      vertex   6.910833e-001 2.423123e-001 -5.000000e-002
      vertex   6.614119e-001 3.143972e-001 -5.000000e-002
      vertex   7.294509e-001 -6.490601e-002 -5.000000e-002
    endloop
  endfacet
  facet normal 0.000000e+000 0.000000e+000 1.000000e+000
    outer loop
      vertex   7.294509e-001 -6.490601e-002 -5.000000e-002
      vertex   6.614119e-001 3.143972e-001 -5.000000e-002
      vertex   6.242465e-001 3.829199e-001 -5.000000e-002
    endloop
  endfacet
  facet normal -0.000000e+000 -0.000000e+000 1.000000e+000
    outer loop
      vertex   5.800082e-001 4.471039e-001 -5.000000e-002
      vertex   7.294509e-001 -6.490601e-002 -5.000000e-002
      vertex   6.242465e-001 3.829199e-001 -5.000000e-002
    endloop
  endfacet
  facet normal 0.000000e+000 0.000000e+000 1.000000e+000
    outer loop
      vertex   5.800082e-001 4.471039e-001 -5.000000e-002
      vertex   5.291981e-001 5.062221e-001 -5.000000e-002
      vertex   7.294509e-001 -6.490601e-002 -5.000000e-002
    endloop
  endfacet
  facet normal 0.000000e+000 0.000000e+000 1.000000e+000
    outer loop
      vertex   7.294509e-001 -6.490601e-002 -5.000000e-002
      vertex   5.291981e-001 5.062221e-001 -5.000000e-002
      vertex   4.723919e-001 5.596045e-001 -5.000000e-002
    endloop
  endfacet
  facet normal -0.000000e+000 -0.000000e+000 1.000000e+000
    outer loop
      vertex   4.102334e-001 6.066464e-001 -5.000000e-002
      vertex   7.294509e-001 -6.490601e-002 -5.000000e-002
      vertex   4.723919e-001 5.596045e-001 -5.000000e-002
    endloop
  endfacet
  facet normal 0.000000e+000 0.000000e+000 1.000000e+000
    outer loop
      vertex   4.102334e-001 6.066464e-001 -5.000000e-002
      vertex   3.434268e-001 6.468148e-001 -5.000000e-002
      vertex   7.294509e-001 -6.490601e-002 -5.000000e-002
    endloop
  endfacet
  facet normal 0.000000e+000 0.000000e+000 1.000000e+000
    outer loop
      vertex   7.294509e-001 -6.490601e-002 -5.000000e-002
      vertex   3.434268e-001 6.468148e-001 -5.000000e-002
      vertex   2.727290e-001 6.796545e-001 -5.000000e-002
    endloop
  endfacet
  facet normal -0.000000e+000 -0.000000e+000 1.000000e+000
    outer loop
      vertex   1.989411e-001 7.047934e-001 -5.000000e-002
      vertex   7.294509e-001 -6.490601e-002 -5.000000e-002
      vertex   2.727290e-001 6.796545e-001 -5.000000e-002
    endloop
  endfacet
  facet normal 0.000000e+000 0.000000e+000 1.000000e+000
    outer loop
      vertex   1.989411e-001 7.047934e-001 -5.000000e-002
      vertex   1.228991e-001 7.219468e-001 -5.000000e-002
      vertex   7.294509e-001 -6.490601e-002 -5.000000e-002
    endloop
  endfacet
  facet normal 0.000000e+000 0.000000e+000 1.000000e+000
    outer loop
      vertex   7.294509e-001 -6.490601e-002 -5.000000e-002
      vertex   1.228991e-001 7.219468e-001 -5.000000e-002
      vertex   4.546464e-002 7.309202e-001 -5.000000e-002
    endloop
  endfacet
  facet normal -0.000000e+000 -0.000000e+000 1.000000e+000
    outer loop
      vertex   -3.248498e-002 7.316120e-001 -5.000000e-002
      vertex   7.294509e-001 -6.490601e-002 -5.000000e-002
      vertex   4.546464e-002 7.309202e-001 -5.000000e-002
    endloop
  endfacet
  facet normal 0.000000e+000 0.000000e+000 1.000000e+000
    outer loop
      vertex   -3.248498e-002 7.316120e-001 -5.000000e-002
      vertex   -1.100665e-001 7.240143e-001 -5.000000e-002
      vertex   7.294509e-001 -6.490601e-002 -5.000000e-002
    endloop
  endfacet
  facet normal 0.000000e+000 0.000000e+000 1.000000e+000
    outer loop
      vertex   7.294509e-001 -6.490601e-002 -5.000000e-002
      vertex   -1.100665e-001 7.240143e-001 -5.000000e-002
      vertex   -1.864010e-001 7.082133e-001 -5.000000e-002
    endloop
  endfacet
  facet normal -0.000000e+000 -0.000000e+000 1.000000e+000
    outer loop
      vertex   -2.606234e-001 6.843879e-001 -5.000000e-002
      vertex   7.294509e-001 -6.490601e-002 -5.000000e-002
      vertex   -1.864010e-001 7.082133e-001 -5.000000e-002
    endloop
  endfacet
  facet normal 0.000000e+000 0.000000e+000 1.000000e+000
    outer loop
      vertex   -2.606234e-001 6.843879e-001 -5.000000e-002
      vertex   -3.318929e-001 6.528081e-001 -5.000000e-002
      vertex   7.294509e-001 -6.490601e-002 -5.000000e-002
    endloop
  endfacet
  facet normal 0.000000e+000 0.000000e+000 1.000000e+000
    outer loop
      vertex   7.294509e-001 -6.490601e-002 -5.000000e-002
      vertex   -3.318929e-001 6.528081e-001 -5.000000e-002
      vertex   -3.994019e-001 6.138318e-001 -5.000000e-002
    endloop
  endfacet
  facet normal -0.000000e+000 -0.000000e+000 1.000000e+000
    outer loop
      vertex   -4.623856e-001 5.679005e-001 -5.000000e-002
      vertex   7.294509e-001 -6.490601e-002 -5.000000e-002
      vertex   -3.994019e-001 6.138318e-001 -5.000000e-002
    endloop
  endfacet
  facet normal 0.000000e+000 0.000000e+000 1.000000e+000
    outer loop
      vertex   -4.623856e-001 5.679005e-001 -5.000000e-002
      vertex   -5.201302e-001 5.155346e-001 -5.000000e-002
      vertex   7.294509e-001 -6.490601e-002 -5.000000e-002
    endloop
  endfacet
  facet normal 0.000000e+000 0.000000e+000 1.000000e+000
    outer loop
      vertex   7.294509e-001 -6.490601e-002 -5.000000e-002
      vertex   -5.201302e-001 5.155346e-001 -5.000000e-002
      vertex   -5.719815e-001 4.573276e-001 -5.000000e-002
    endloop
  endfacet
  facet normal -0.000000e+000 -0.000000e+000 1.000000e+000
    outer loop
      vertex   -6.173521e-001 3.939388e-001 -5.000000e-002
      vertex   7.294509e-001 -6.490601e-002 -5.000000e-002
      vertex   -5.719815e-001 4.573276e-001 -5.000000e-002
    endloop
  endfacet
  facet normal 0.000000e+000 0.000000e+000 1.000000e+000
    outer loop
      vertex   -6.173521e-001 3.939388e-001 -5.000000e-002
      vertex   -6.557278e-001 3.260866e-001 -5.000000e-002
      vertex   7.294509e-001 -6.490601e-002 -5.000000e-002
    endloop
  endfacet
  facet normal 0.000000e+000 0.000000e+000 1.000000e+000
    outer loop
      vertex   7.294509e-001 -6.490601e-002 -5.000000e-002
      vertex   -6.557278e-001 3.260866e-001 -5.000000e-002
      vertex   -6.866738e-001 2.545396e-001 -5.000000e-002
    endloop
  endfacet
  facet normal -0.000000e+000 -0.000000e+000 1.000000e+000
    outer loop
      vertex   -7.098396e-001 1.801087e-001 -5.000000e-002
      vertex   7.294509e-001 -6.490601e-002 -5.000000e-002
      vertex   -6.866738e-001 2.545396e-001 -5.000000e-002
    endloop
  endfacet
  facet normal 0.000000e+000 0.000000e+000 1.000000e+000
    outer loop
      vertex   -7.098396e-001 1.801087e-001 -5.000000e-002
      vertex   -7.249626e-001 1.036370e-001 -5.000000e-002
      vertex   7.294509e-001 -6.490601e-002 -5.000000e-002
    endloop
  endfacet
  facet normal 0.000000e+000 0.000000e+000 1.000000e+000
    outer loop
      vertex   7.294509e-001 -6.490601e-002 -5.000000e-002
      vertex   -7.249626e-001 1.036370e-001 -5.000000e-002
      vertex   -7.318715e-001 2.599105e-002 -5.000000e-002
    endloop
  endfacet
  facet normal -0.000000e+000 0.000000e+000 1.000000e+000
    outer loop
      vertex   -3.773650e-001 -6.276201e-001 -5.000000e-002
      vertex   -3.085152e-001 -6.641760e-001 -5.000000e-002
      vertex   3.661664e-001 -6.342188e-001 -5.000000e-002
    endloop
  endfacet
  facet normal 0.000000e+000 0.000000e+000 1.000000e+000
    outer loop
      vertex   3.661664e-001 -6.342188e-001 -5.000000e-002
      vertex   -3.085152e-001 -6.641760e-001 -5.000000e-002
      vertex   2.966787e-001 -6.695470e-001 -5.000000e-002
    endloop
  endfacet
  facet normal 0.000000e+000 0.000000e+000 1.000000e+000
    outer loop
      vertex   2.966787e-001 -6.695470e-001 -5.000000e-002
      vertex   -3.085152e-001 -6.641760e-001 -5.000000e-002
      vertex   -2.361698e-001 -6.932065e-001 -5.000000e-002
    endloop
  endfacet
  facet normal 0.000000e+000 0.000000e+000 1.000000e+000
    outer loop
      vertex   2.238295e-001 -6.972889e-001 -5.000000e-002
      vertex   -2.361698e-001 -6.932065e-001 -5.000000e-002
      vertex   -1.611485e-001 -7.143826e-001 -5.000000e-002
    endloop
  endfacet
  facet normal 0.000000e+000 0.000000e+000 1.000000e+000
    outer loop
      vertex   1.484442e-001 -7.171302e-001 -5.000000e-002
      vertex   -1.611485e-001 -7.143826e-001 -5.000000e-002
      vertex   -8.430137e-002 -7.274645e-001 -5.000000e-002
    endloop
  endfacet
  facet normal 0.000000e+000 0.000000e+000 1.000000e+000
    outer loop
      vertex   7.137692e-002 -7.288461e-001 -5.000000e-002
      vertex   -8.430137e-002 -7.274645e-001 -5.000000e-002
      vertex   -6.499043e-003 -7.323040e-001 -5.000000e-002
    endloop
  endfacet
  facet normal 0.000000e+000 -0.000000e+000 1.000000e+000
    outer loop
      vertex   7.137692e-002 -7.288461e-001 -5.000000e-002
      vertex   1.484442e-001 -7.171302e-001 -5.000000e-002
      vertex   -8.430137e-002 -7.274645e-001 -5.000000e-002
    endloop
  endfacet
  facet normal 0.000000e+000 0.000000e+000 1.000000e+000
    outer loop
      vertex   2.966787e-001 -6.695470e-001 -5.000000e-002
      vertex   -2.361698e-001 -6.932065e-001 -5.000000e-002
      vertex   2.238295e-001 -6.972889e-001 -5.000000e-002
    endloop
  endfacet
  facet normal 0.000000e+000 0.000000e+000 1.000000e+000
    outer loop
      vertex   2.238295e-001 -6.972889e-001 -5.000000e-002
      vertex   -1.611485e-001 -7.143826e-001 -5.000000e-002
      vertex   1.484442e-001 -7.171302e-001 -5.000000e-002
    endloop
  endfacet
endsolid
